<?xml version="1.0" encoding="utf-8"?>
<svg xmlns="http://www.w3.org/2000/svg" xmlns:xlink="http://www.w3.org/1999/xlink" width="600" height="400" viewBox="0 0 2400 1600">
<defs>
  <clipPath id="clip220">
    <rect x="0" y="0" width="2400" height="1600"/>
  </clipPath>
</defs>
<path clip-path="url(#clip220)" d="
M0 1600 L2400 1600 L2400 0 L0 0  Z
  " fill="#ffffff" fill-rule="evenodd" fill-opacity="1"/>
<defs>
  <clipPath id="clip221">
    <rect x="480" y="0" width="1681" height="1600"/>
  </clipPath>
</defs>
<path clip-path="url(#clip220)" d="
M261.324 1410.9 L2352.76 1410.9 L2352.76 123.472 L261.324 123.472  Z
  " fill="#ffffff" fill-rule="evenodd" fill-opacity="1"/>
<defs>
  <clipPath id="clip222">
    <rect x="261" y="123" width="2092" height="1288"/>
  </clipPath>
</defs>
<polyline clip-path="url(#clip222)" style="stroke:#000000; stroke-width:2; stroke-opacity:0.1; fill:none" points="
  2294.31,1410.9 2294.31,123.472 
  "/>
<polyline clip-path="url(#clip222)" style="stroke:#000000; stroke-width:2; stroke-opacity:0.1; fill:none" points="
  1855.69,1410.9 1855.69,123.472 
  "/>
<polyline clip-path="url(#clip222)" style="stroke:#000000; stroke-width:2; stroke-opacity:0.1; fill:none" points="
  1417.07,1410.9 1417.07,123.472 
  "/>
<polyline clip-path="url(#clip222)" style="stroke:#000000; stroke-width:2; stroke-opacity:0.1; fill:none" points="
  978.447,1410.9 978.447,123.472 
  "/>
<polyline clip-path="url(#clip222)" style="stroke:#000000; stroke-width:2; stroke-opacity:0.1; fill:none" points="
  539.826,1410.9 539.826,123.472 
  "/>
<polyline clip-path="url(#clip220)" style="stroke:#000000; stroke-width:4; stroke-opacity:1; fill:none" points="
  2352.76,1410.9 261.324,1410.9 
  "/>
<polyline clip-path="url(#clip220)" style="stroke:#000000; stroke-width:4; stroke-opacity:1; fill:none" points="
  2294.31,1410.9 2294.31,1395.45 
  "/>
<polyline clip-path="url(#clip220)" style="stroke:#000000; stroke-width:4; stroke-opacity:1; fill:none" points="
  1855.69,1410.9 1855.69,1395.45 
  "/>
<polyline clip-path="url(#clip220)" style="stroke:#000000; stroke-width:4; stroke-opacity:1; fill:none" points="
  1417.07,1410.9 1417.07,1395.45 
  "/>
<polyline clip-path="url(#clip220)" style="stroke:#000000; stroke-width:4; stroke-opacity:1; fill:none" points="
  978.447,1410.9 978.447,1395.45 
  "/>
<polyline clip-path="url(#clip220)" style="stroke:#000000; stroke-width:4; stroke-opacity:1; fill:none" points="
  539.826,1410.9 539.826,1395.45 
  "/>
<path clip-path="url(#clip220)" d="M 0 0 M2294.31 1440.09 Q2290.7 1440.09 2288.87 1443.65 Q2287.06 1447.19 2287.06 1454.32 Q2287.06 1461.43 2288.87 1464.99 Q2290.7 1468.54 2294.31 1468.54 Q2297.94 1468.54 2299.75 1464.99 Q2301.58 1461.43 2301.58 1454.32 Q2301.58 1447.19 2299.75 1443.65 Q2297.94 1440.09 2294.31 1440.09 M2294.31 1436.38 Q2300.12 1436.38 2303.18 1440.99 Q2306.25 1445.57 2306.25 1454.32 Q2306.25 1463.05 2303.18 1467.66 Q2300.12 1472.24 2294.31 1472.24 Q2288.5 1472.24 2285.42 1467.66 Q2282.37 1463.05 2282.37 1454.32 Q2282.37 1445.57 2285.42 1440.99 Q2288.5 1436.38 2294.31 1436.38 Z" fill="#000000" fill-rule="evenodd" fill-opacity="1" /><path clip-path="url(#clip220)" d="M 0 0 M1792.82 1489.17 L1800.46 1489.17 L1800.46 1462.8 L1792.15 1464.47 L1792.15 1460.21 L1800.41 1458.54 L1805.09 1458.54 L1805.09 1489.17 L1812.73 1489.17 L1812.73 1493.1 L1792.82 1493.1 L1792.82 1489.17 Z" fill="#000000" fill-rule="evenodd" fill-opacity="1" /><path clip-path="url(#clip220)" d="M 0 0 M1845.97 1467.64 L1835.39 1478.27 L1845.97 1488.84 L1843.21 1491.65 L1832.59 1481.02 L1821.96 1491.65 L1819.23 1488.84 L1829.79 1478.27 L1819.23 1467.64 L1821.96 1464.84 L1832.59 1475.47 L1843.21 1464.84 L1845.97 1467.64 Z" fill="#000000" fill-rule="evenodd" fill-opacity="1" /><path clip-path="url(#clip220)" d="M 0 0 M1851.85 1489.17 L1859.49 1489.17 L1859.49 1462.8 L1851.18 1464.47 L1851.18 1460.21 L1859.44 1458.54 L1864.12 1458.54 L1864.12 1489.17 L1871.75 1489.17 L1871.75 1493.1 L1851.85 1493.1 L1851.85 1489.17 Z" fill="#000000" fill-rule="evenodd" fill-opacity="1" /><path clip-path="url(#clip220)" d="M 0 0 M1886.82 1461.62 Q1883.21 1461.62 1881.38 1465.19 Q1879.58 1468.73 1879.58 1475.86 Q1879.58 1482.97 1881.38 1486.53 Q1883.21 1490.07 1886.82 1490.07 Q1890.46 1490.07 1892.26 1486.53 Q1894.09 1482.97 1894.09 1475.86 Q1894.09 1468.73 1892.26 1465.19 Q1890.46 1461.62 1886.82 1461.62 M1886.82 1457.92 Q1892.63 1457.92 1895.69 1462.53 Q1898.77 1467.11 1898.77 1475.86 Q1898.77 1484.59 1895.69 1489.19 Q1892.63 1493.78 1886.82 1493.78 Q1881.01 1493.78 1877.93 1489.19 Q1874.88 1484.59 1874.88 1475.86 Q1874.88 1467.11 1877.93 1462.53 Q1881.01 1457.92 1886.82 1457.92 Z" fill="#000000" fill-rule="evenodd" fill-opacity="1" /><path clip-path="url(#clip220)" d="M 0 0 M1911.44 1440.92 L1901.85 1455.91 L1911.44 1455.91 L1911.44 1440.92 M1910.45 1437.61 L1915.22 1437.61 L1915.22 1455.91 L1919.23 1455.91 L1919.23 1459.07 L1915.22 1459.07 L1915.22 1465.69 L1911.44 1465.69 L1911.44 1459.07 L1898.77 1459.07 L1898.77 1455.41 L1910.45 1437.61 Z" fill="#000000" fill-rule="evenodd" fill-opacity="1" /><path clip-path="url(#clip220)" d="M 0 0 M1358.47 1489.17 L1374.79 1489.17 L1374.79 1493.1 L1352.84 1493.1 L1352.84 1489.17 Q1355.51 1486.41 1360.09 1481.78 Q1364.7 1477.13 1365.88 1475.79 Q1368.12 1473.27 1369 1471.53 Q1369.9 1469.77 1369.9 1468.08 Q1369.9 1465.33 1367.96 1463.59 Q1366.04 1461.85 1362.94 1461.85 Q1360.74 1461.85 1358.28 1462.62 Q1355.85 1463.38 1353.08 1464.93 L1353.08 1460.21 Q1355.9 1459.08 1358.35 1458.5 Q1360.81 1457.92 1362.84 1457.92 Q1368.21 1457.92 1371.41 1460.6 Q1374.6 1463.29 1374.6 1467.78 Q1374.6 1469.91 1373.79 1471.83 Q1373.01 1473.73 1370.9 1476.32 Q1370.32 1476.99 1367.22 1480.21 Q1364.12 1483.4 1358.47 1489.17 Z" fill="#000000" fill-rule="evenodd" fill-opacity="1" /><path clip-path="url(#clip220)" d="M 0 0 M1408.03 1467.64 L1397.45 1478.27 L1408.03 1488.84 L1405.27 1491.65 L1394.65 1481.02 L1384.02 1491.65 L1381.29 1488.84 L1391.85 1478.27 L1381.29 1467.64 L1384.02 1464.84 L1394.65 1475.47 L1405.27 1464.84 L1408.03 1467.64 Z" fill="#000000" fill-rule="evenodd" fill-opacity="1" /><path clip-path="url(#clip220)" d="M 0 0 M1413.91 1489.17 L1421.55 1489.17 L1421.55 1462.8 L1413.24 1464.47 L1413.24 1460.21 L1421.5 1458.54 L1426.18 1458.54 L1426.18 1489.17 L1433.82 1489.17 L1433.82 1493.1 L1413.91 1493.1 L1413.91 1489.17 Z" fill="#000000" fill-rule="evenodd" fill-opacity="1" /><path clip-path="url(#clip220)" d="M 0 0 M1448.89 1461.62 Q1445.27 1461.62 1443.45 1465.19 Q1441.64 1468.73 1441.64 1475.86 Q1441.64 1482.97 1443.45 1486.53 Q1445.27 1490.07 1448.89 1490.07 Q1452.52 1490.07 1454.32 1486.53 Q1456.15 1482.97 1456.15 1475.86 Q1456.15 1468.73 1454.32 1465.19 Q1452.52 1461.62 1448.89 1461.62 M1448.89 1457.92 Q1454.7 1457.92 1457.75 1462.53 Q1460.83 1467.11 1460.83 1475.86 Q1460.83 1484.59 1457.75 1489.19 Q1454.7 1493.78 1448.89 1493.78 Q1443.08 1493.78 1440 1489.19 Q1436.94 1484.59 1436.94 1475.86 Q1436.94 1467.11 1440 1462.53 Q1443.08 1457.92 1448.89 1457.92 Z" fill="#000000" fill-rule="evenodd" fill-opacity="1" /><path clip-path="url(#clip220)" d="M 0 0 M1473.51 1440.92 L1463.91 1455.91 L1473.51 1455.91 L1473.51 1440.92 M1472.51 1437.61 L1477.29 1437.61 L1477.29 1455.91 L1481.29 1455.91 L1481.29 1459.07 L1477.29 1459.07 L1477.29 1465.69 L1473.51 1465.69 L1473.51 1459.07 L1460.83 1459.07 L1460.83 1455.41 L1472.51 1437.61 Z" fill="#000000" fill-rule="evenodd" fill-opacity="1" /><path clip-path="url(#clip220)" d="M 0 0 M929.443 1474.47 Q932.799 1475.19 934.674 1477.46 Q936.572 1479.72 936.572 1483.06 Q936.572 1488.17 933.054 1490.97 Q929.535 1493.78 923.054 1493.78 Q920.878 1493.78 918.563 1493.34 Q916.272 1492.92 913.818 1492.06 L913.818 1487.55 Q915.762 1488.68 918.077 1489.26 Q920.392 1489.84 922.915 1489.84 Q927.313 1489.84 929.605 1488.1 Q931.92 1486.37 931.92 1483.06 Q931.92 1480 929.767 1478.29 Q927.637 1476.55 923.818 1476.55 L919.79 1476.55 L919.79 1472.71 L924.003 1472.71 Q927.452 1472.71 929.281 1471.34 Q931.11 1469.96 931.11 1467.36 Q931.11 1464.7 929.211 1463.29 Q927.336 1461.85 923.818 1461.85 Q921.897 1461.85 919.698 1462.27 Q917.499 1462.69 914.86 1463.57 L914.86 1459.4 Q917.522 1458.66 919.836 1458.29 Q922.174 1457.92 924.235 1457.92 Q929.559 1457.92 932.66 1460.35 Q935.762 1462.76 935.762 1466.88 Q935.762 1469.75 934.119 1471.74 Q932.475 1473.71 929.443 1474.47 Z" fill="#000000" fill-rule="evenodd" fill-opacity="1" /><path clip-path="url(#clip220)" d="M 0 0 M969.813 1467.64 L959.234 1478.27 L969.813 1488.84 L967.058 1491.65 L956.433 1481.02 L945.809 1491.65 L943.077 1488.84 L953.633 1478.27 L943.077 1467.64 L945.809 1464.84 L956.433 1475.47 L967.058 1464.84 L969.813 1467.64 Z" fill="#000000" fill-rule="evenodd" fill-opacity="1" /><path clip-path="url(#clip220)" d="M 0 0 M975.693 1489.17 L983.331 1489.17 L983.331 1462.8 L975.021 1464.47 L975.021 1460.21 L983.285 1458.54 L987.961 1458.54 L987.961 1489.17 L995.6 1489.17 L995.6 1493.1 L975.693 1493.1 L975.693 1489.17 Z" fill="#000000" fill-rule="evenodd" fill-opacity="1" /><path clip-path="url(#clip220)" d="M 0 0 M1010.67 1461.62 Q1007.06 1461.62 1005.23 1465.19 Q1003.42 1468.73 1003.42 1475.86 Q1003.42 1482.97 1005.23 1486.53 Q1007.06 1490.07 1010.67 1490.07 Q1014.3 1490.07 1016.11 1486.53 Q1017.94 1482.97 1017.94 1475.86 Q1017.94 1468.73 1016.11 1465.19 Q1014.3 1461.62 1010.67 1461.62 M1010.67 1457.92 Q1016.48 1457.92 1019.54 1462.53 Q1022.61 1467.11 1022.61 1475.86 Q1022.61 1484.59 1019.54 1489.19 Q1016.48 1493.78 1010.67 1493.78 Q1004.86 1493.78 1001.78 1489.19 Q998.725 1484.59 998.725 1475.86 Q998.725 1467.11 1001.78 1462.53 Q1004.86 1457.92 1010.67 1457.92 Z" fill="#000000" fill-rule="evenodd" fill-opacity="1" /><path clip-path="url(#clip220)" d="M 0 0 M1035.29 1440.92 L1025.7 1455.91 L1035.29 1455.91 L1035.29 1440.92 M1034.29 1437.61 L1039.07 1437.61 L1039.07 1455.91 L1043.08 1455.91 L1043.08 1459.07 L1039.07 1459.07 L1039.07 1465.69 L1035.29 1465.69 L1035.29 1459.07 L1022.61 1459.07 L1022.61 1455.41 L1034.29 1437.61 Z" fill="#000000" fill-rule="evenodd" fill-opacity="1" /><path clip-path="url(#clip220)" d="M 0 0 M489.584 1462.62 L477.778 1481.07 L489.584 1481.07 L489.584 1462.62 M488.357 1458.54 L494.236 1458.54 L494.236 1481.07 L499.167 1481.07 L499.167 1484.96 L494.236 1484.96 L494.236 1493.1 L489.584 1493.1 L489.584 1484.96 L473.982 1484.96 L473.982 1480.44 L488.357 1458.54 Z" fill="#000000" fill-rule="evenodd" fill-opacity="1" /><path clip-path="url(#clip220)" d="M 0 0 M532.407 1467.64 L521.829 1478.27 L532.407 1488.84 L529.653 1491.65 L519.028 1481.02 L508.403 1491.65 L505.671 1488.84 L516.227 1478.27 L505.671 1467.64 L508.403 1464.84 L519.028 1475.47 L529.653 1464.84 L532.407 1467.64 Z" fill="#000000" fill-rule="evenodd" fill-opacity="1" /><path clip-path="url(#clip220)" d="M 0 0 M538.287 1489.17 L545.926 1489.17 L545.926 1462.8 L537.616 1464.47 L537.616 1460.21 L545.88 1458.54 L550.555 1458.54 L550.555 1489.17 L558.194 1489.17 L558.194 1493.1 L538.287 1493.1 L538.287 1489.17 Z" fill="#000000" fill-rule="evenodd" fill-opacity="1" /><path clip-path="url(#clip220)" d="M 0 0 M573.264 1461.62 Q569.653 1461.62 567.824 1465.19 Q566.018 1468.73 566.018 1475.86 Q566.018 1482.97 567.824 1486.53 Q569.653 1490.07 573.264 1490.07 Q576.898 1490.07 578.703 1486.53 Q580.532 1482.97 580.532 1475.86 Q580.532 1468.73 578.703 1465.19 Q576.898 1461.62 573.264 1461.62 M573.264 1457.92 Q579.074 1457.92 582.129 1462.53 Q585.208 1467.11 585.208 1475.86 Q585.208 1484.59 582.129 1489.19 Q579.074 1493.78 573.264 1493.78 Q567.453 1493.78 564.375 1489.19 Q561.319 1484.59 561.319 1475.86 Q561.319 1467.11 564.375 1462.53 Q567.453 1457.92 573.264 1457.92 Z" fill="#000000" fill-rule="evenodd" fill-opacity="1" /><path clip-path="url(#clip220)" d="M 0 0 M597.884 1440.92 L588.292 1455.91 L597.884 1455.91 L597.884 1440.92 M596.888 1437.61 L601.665 1437.61 L601.665 1455.91 L605.671 1455.91 L605.671 1459.07 L601.665 1459.07 L601.665 1465.69 L597.884 1465.69 L597.884 1459.07 L585.208 1459.07 L585.208 1455.41 L596.888 1437.61 Z" fill="#000000" fill-rule="evenodd" fill-opacity="1" /><path clip-path="url(#clip220)" d="M 0 0 M820.812 1514.67 L829.469 1514.67 L850.539 1554.42 L850.539 1514.67 L856.778 1514.67 L856.778 1562.19 L848.12 1562.19 L827.05 1522.43 L827.05 1562.19 L820.812 1562.19 L820.812 1514.67 Z" fill="#000000" fill-rule="evenodd" fill-opacity="1" /><path clip-path="url(#clip220)" d="M 0 0 M862.316 1548.12 L862.316 1526.54 L868.172 1526.54 L868.172 1547.89 Q868.172 1552.96 870.146 1555.5 Q872.119 1558.02 876.066 1558.02 Q880.808 1558.02 883.546 1554.99 Q886.315 1551.97 886.315 1546.75 L886.315 1526.54 L892.171 1526.54 L892.171 1562.19 L886.315 1562.19 L886.315 1556.71 Q884.182 1559.96 881.349 1561.55 Q878.549 1563.11 874.825 1563.11 Q868.682 1563.11 865.499 1559.29 Q862.316 1555.47 862.316 1548.12 M877.053 1525.68 L877.053 1525.68 Z" fill="#000000" fill-rule="evenodd" fill-opacity="1" /><path clip-path="url(#clip220)" d="M 0 0 M926.069 1533.38 Q928.265 1529.43 931.32 1527.56 Q934.376 1525.68 938.513 1525.68 Q944.083 1525.68 947.107 1529.59 Q950.131 1533.48 950.131 1540.67 L950.131 1562.19 L944.243 1562.19 L944.243 1540.86 Q944.243 1535.74 942.428 1533.25 Q940.614 1530.77 936.89 1530.77 Q932.339 1530.77 929.697 1533.79 Q927.055 1536.82 927.055 1542.04 L927.055 1562.19 L921.167 1562.19 L921.167 1540.86 Q921.167 1535.7 919.353 1533.25 Q917.538 1530.77 913.751 1530.77 Q909.263 1530.77 906.621 1533.83 Q903.98 1536.85 903.98 1542.04 L903.98 1562.19 L898.091 1562.19 L898.091 1526.54 L903.98 1526.54 L903.98 1532.08 Q905.985 1528.8 908.786 1527.24 Q911.587 1525.68 915.438 1525.68 Q919.321 1525.68 922.026 1527.65 Q924.764 1529.62 926.069 1533.38 Z" fill="#000000" fill-rule="evenodd" fill-opacity="1" /><path clip-path="url(#clip220)" d="M 0 0 M981.864 1544.39 Q981.864 1537.93 979.19 1534.27 Q976.549 1530.58 971.902 1530.58 Q967.255 1530.58 964.581 1534.27 Q961.939 1537.93 961.939 1544.39 Q961.939 1550.85 964.581 1554.55 Q967.255 1558.21 971.902 1558.21 Q976.549 1558.21 979.19 1554.55 Q981.864 1550.85 981.864 1544.39 M961.939 1531.95 Q963.785 1528.77 966.586 1527.24 Q969.419 1525.68 973.334 1525.68 Q979.827 1525.68 983.869 1530.83 Q987.943 1535.99 987.943 1544.39 Q987.943 1552.8 983.869 1557.95 Q979.827 1563.11 973.334 1563.11 Q969.419 1563.11 966.586 1561.58 Q963.785 1560.02 961.939 1556.84 L961.939 1562.19 L956.051 1562.19 L956.051 1512.66 L961.939 1512.66 L961.939 1531.95 Z" fill="#000000" fill-rule="evenodd" fill-opacity="1" /><path clip-path="url(#clip220)" d="M 0 0 M1024.58 1542.9 L1024.58 1545.76 L997.651 1545.76 Q998.033 1551.81 1001.28 1554.99 Q1004.56 1558.14 1010.38 1558.14 Q1013.76 1558.14 1016.91 1557.32 Q1020.09 1556.49 1023.21 1554.83 L1023.21 1560.37 Q1020.06 1561.71 1016.75 1562.41 Q1013.44 1563.11 1010.03 1563.11 Q1001.5 1563.11 996.505 1558.14 Q991.54 1553.18 991.54 1544.71 Q991.54 1535.96 996.25 1530.83 Q1000.99 1525.68 1009.01 1525.68 Q1016.21 1525.68 1020.38 1530.33 Q1024.58 1534.94 1024.58 1542.9 M1018.72 1541.18 Q1018.66 1536.37 1016.02 1533.51 Q1013.41 1530.64 1009.08 1530.64 Q1004.18 1530.64 1001.22 1533.41 Q998.287 1536.18 997.842 1541.21 L1018.72 1541.18 Z" fill="#000000" fill-rule="evenodd" fill-opacity="1" /><path clip-path="url(#clip220)" d="M 0 0 M1051.38 1532.01 Q1050.39 1531.44 1049.21 1531.18 Q1048.07 1530.9 1046.67 1530.9 Q1041.7 1530.9 1039.03 1534.14 Q1036.39 1537.36 1036.39 1543.41 L1036.39 1562.19 L1030.5 1562.19 L1030.5 1526.54 L1036.39 1526.54 L1036.39 1532.08 Q1038.23 1528.83 1041.19 1527.27 Q1044.15 1525.68 1048.39 1525.68 Q1048.99 1525.68 1049.72 1525.77 Q1050.45 1525.84 1051.35 1526 L1051.38 1532.01 Z" fill="#000000" fill-rule="evenodd" fill-opacity="1" /><path clip-path="url(#clip220)" d="M 0 0 M1092.05 1530.64 Q1087.34 1530.64 1084.61 1534.34 Q1081.87 1538 1081.87 1544.39 Q1081.87 1550.79 1084.57 1554.48 Q1087.31 1558.14 1092.05 1558.14 Q1096.73 1558.14 1099.47 1554.45 Q1102.21 1550.76 1102.21 1544.39 Q1102.21 1538.06 1099.47 1534.37 Q1096.73 1530.64 1092.05 1530.64 M1092.05 1525.68 Q1099.69 1525.68 1104.05 1530.64 Q1108.41 1535.61 1108.41 1544.39 Q1108.41 1553.15 1104.05 1558.14 Q1099.69 1563.11 1092.05 1563.11 Q1084.38 1563.11 1080.02 1558.14 Q1075.69 1553.15 1075.69 1544.39 Q1075.69 1535.61 1080.02 1530.64 Q1084.38 1525.68 1092.05 1525.68 Z" fill="#000000" fill-rule="evenodd" fill-opacity="1" /><path clip-path="url(#clip220)" d="M 0 0 M1132.6 1512.66 L1132.6 1517.53 L1127 1517.53 Q1123.85 1517.53 1122.61 1518.8 Q1121.4 1520.08 1121.4 1523.39 L1121.4 1526.54 L1131.04 1526.54 L1131.04 1531.09 L1121.4 1531.09 L1121.4 1562.19 L1115.51 1562.19 L1115.51 1531.09 L1109.91 1531.09 L1109.91 1526.54 L1115.51 1526.54 L1115.51 1524.05 Q1115.51 1518.1 1118.28 1515.4 Q1121.05 1512.66 1127.07 1512.66 L1132.6 1512.66 Z" fill="#000000" fill-rule="evenodd" fill-opacity="1" /><path clip-path="url(#clip220)" d="M 0 0 M1166.15 1519.95 L1166.15 1537.8 L1174.24 1537.8 Q1178.72 1537.8 1181.17 1535.48 Q1183.63 1533.16 1183.63 1528.86 Q1183.63 1524.6 1181.17 1522.27 Q1178.72 1519.95 1174.24 1519.95 L1166.15 1519.95 M1159.72 1514.67 L1174.24 1514.67 Q1182.22 1514.67 1186.3 1518.29 Q1190.4 1521.89 1190.4 1528.86 Q1190.4 1535.9 1186.3 1539.49 Q1182.22 1543.09 1174.24 1543.09 L1166.15 1543.09 L1166.15 1562.19 L1159.72 1562.19 L1159.72 1514.67 Z" fill="#000000" fill-rule="evenodd" fill-opacity="1" /><path clip-path="url(#clip220)" d="M 0 0 M1195.12 1526.54 L1200.97 1526.54 L1200.97 1562.19 L1195.12 1562.19 L1195.12 1526.54 M1195.12 1512.66 L1200.97 1512.66 L1200.97 1520.08 L1195.12 1520.08 L1195.12 1512.66 Z" fill="#000000" fill-rule="evenodd" fill-opacity="1" /><path clip-path="url(#clip220)" d="M 0 0 M1227.77 1532.01 Q1226.78 1531.44 1225.61 1531.18 Q1224.46 1530.9 1223.06 1530.9 Q1218.1 1530.9 1215.42 1534.14 Q1212.78 1537.36 1212.78 1543.41 L1212.78 1562.19 L1206.89 1562.19 L1206.89 1526.54 L1212.78 1526.54 L1212.78 1532.08 Q1214.63 1528.83 1217.59 1527.27 Q1220.55 1525.68 1224.78 1525.68 Q1225.38 1525.68 1226.12 1525.77 Q1226.85 1525.84 1227.74 1526 L1227.77 1532.01 Z" fill="#000000" fill-rule="evenodd" fill-opacity="1" /><path clip-path="url(#clip220)" d="M 0 0 M1250.11 1544.27 Q1243.02 1544.27 1240.28 1545.89 Q1237.54 1547.51 1237.54 1551.43 Q1237.54 1554.55 1239.58 1556.39 Q1241.65 1558.21 1245.18 1558.21 Q1250.05 1558.21 1252.98 1554.77 Q1255.94 1551.3 1255.94 1545.57 L1255.94 1544.27 L1250.11 1544.27 M1261.8 1541.85 L1261.8 1562.19 L1255.94 1562.19 L1255.94 1556.77 Q1253.93 1560.02 1250.94 1561.58 Q1247.95 1563.11 1243.62 1563.11 Q1238.15 1563.11 1234.9 1560.05 Q1231.69 1556.97 1231.69 1551.81 Q1231.69 1545.79 1235.7 1542.74 Q1239.74 1539.68 1247.73 1539.68 L1255.94 1539.68 L1255.94 1539.11 Q1255.94 1535.07 1253.27 1532.87 Q1250.62 1530.64 1245.82 1530.64 Q1242.76 1530.64 1239.87 1531.38 Q1236.97 1532.11 1234.3 1533.57 L1234.3 1528.16 Q1237.51 1526.92 1240.53 1526.31 Q1243.56 1525.68 1246.42 1525.68 Q1254.16 1525.68 1257.98 1529.69 Q1261.8 1533.7 1261.8 1541.85 Z" fill="#000000" fill-rule="evenodd" fill-opacity="1" /><path clip-path="url(#clip220)" d="M 0 0 M1273.73 1516.42 L1273.73 1526.54 L1285.79 1526.54 L1285.79 1531.09 L1273.73 1531.09 L1273.73 1550.44 Q1273.73 1554.8 1274.91 1556.04 Q1276.12 1557.28 1279.78 1557.28 L1285.79 1557.28 L1285.79 1562.19 L1279.78 1562.19 Q1273 1562.19 1270.42 1559.67 Q1267.84 1557.12 1267.84 1550.44 L1267.84 1531.09 L1263.55 1531.09 L1263.55 1526.54 L1267.84 1526.54 L1267.84 1516.42 L1273.73 1516.42 Z" fill="#000000" fill-rule="evenodd" fill-opacity="1" /><path clip-path="url(#clip220)" d="M 0 0 M1322.43 1542.9 L1322.43 1545.76 L1295.5 1545.76 Q1295.88 1551.81 1299.13 1554.99 Q1302.41 1558.14 1308.23 1558.14 Q1311.61 1558.14 1314.76 1557.32 Q1317.94 1556.49 1321.06 1554.83 L1321.06 1560.37 Q1317.91 1561.71 1314.6 1562.41 Q1311.29 1563.11 1307.88 1563.11 Q1299.35 1563.11 1294.36 1558.14 Q1289.39 1553.18 1289.39 1544.71 Q1289.39 1535.96 1294.1 1530.83 Q1298.84 1525.68 1306.87 1525.68 Q1314.06 1525.68 1318.23 1530.33 Q1322.43 1534.94 1322.43 1542.9 M1316.57 1541.18 Q1316.51 1536.37 1313.87 1533.51 Q1311.26 1530.64 1306.93 1530.64 Q1302.03 1530.64 1299.07 1533.41 Q1296.14 1536.18 1295.69 1541.21 L1316.57 1541.18 Z" fill="#000000" fill-rule="evenodd" fill-opacity="1" /><path clip-path="url(#clip220)" d="M 0 0 M1351.3 1527.59 L1351.3 1533.13 Q1348.82 1531.85 1346.14 1531.22 Q1343.47 1530.58 1340.6 1530.58 Q1336.24 1530.58 1334.05 1531.92 Q1331.88 1533.25 1331.88 1535.93 Q1331.88 1537.96 1333.44 1539.14 Q1335 1540.29 1339.71 1541.34 L1341.72 1541.78 Q1347.96 1543.12 1350.57 1545.57 Q1353.21 1547.99 1353.21 1552.35 Q1353.21 1557.32 1349.26 1560.21 Q1345.35 1563.11 1338.47 1563.11 Q1335.61 1563.11 1332.49 1562.54 Q1329.4 1561.99 1325.96 1560.88 L1325.96 1554.83 Q1329.21 1556.52 1332.36 1557.38 Q1335.51 1558.21 1338.6 1558.21 Q1342.74 1558.21 1344.96 1556.81 Q1347.19 1555.37 1347.19 1552.8 Q1347.19 1550.41 1345.57 1549.14 Q1343.98 1547.86 1338.53 1546.68 L1336.5 1546.21 Q1331.05 1545.06 1328.64 1542.71 Q1326.22 1540.32 1326.22 1536.18 Q1326.22 1531.15 1329.78 1528.42 Q1333.35 1525.68 1339.9 1525.68 Q1343.15 1525.68 1346.01 1526.16 Q1348.88 1526.63 1351.3 1527.59 Z" fill="#000000" fill-rule="evenodd" fill-opacity="1" /><path clip-path="url(#clip220)" d="M 0 0 M1379.53 1512.66 L1393.02 1512.66 L1393.02 1517.21 L1385.39 1517.21 L1385.39 1566.23 L1393.02 1566.23 L1393.02 1570.78 L1379.53 1570.78 L1379.53 1512.66 Z" fill="#000000" fill-rule="evenodd" fill-opacity="1" /><path clip-path="url(#clip220)" d="M 0 0 M1415.3 1521 L1406.58 1544.65 L1424.06 1544.65 L1415.3 1521 M1411.68 1514.67 L1418.97 1514.67 L1437.08 1562.19 L1430.39 1562.19 L1426.06 1550 L1404.64 1550 L1400.31 1562.19 L1393.53 1562.19 L1411.68 1514.67 Z" fill="#000000" fill-rule="evenodd" fill-opacity="1" /><path clip-path="url(#clip220)" d="M 0 0 M1448.88 1556.84 L1448.88 1575.74 L1443 1575.74 L1443 1526.54 L1448.88 1526.54 L1448.88 1531.95 Q1450.73 1528.77 1453.53 1527.24 Q1456.36 1525.68 1460.28 1525.68 Q1466.77 1525.68 1470.81 1530.83 Q1474.89 1535.99 1474.89 1544.39 Q1474.89 1552.8 1470.81 1557.95 Q1466.77 1563.11 1460.28 1563.11 Q1456.36 1563.11 1453.53 1561.58 Q1450.73 1560.02 1448.88 1556.84 M1468.81 1544.39 Q1468.81 1537.93 1466.14 1534.27 Q1463.49 1530.58 1458.85 1530.58 Q1454.2 1530.58 1451.53 1534.27 Q1448.88 1537.93 1448.88 1544.39 Q1448.88 1550.85 1451.53 1554.55 Q1454.2 1558.21 1458.85 1558.21 Q1463.49 1558.21 1466.14 1554.55 Q1468.81 1550.85 1468.81 1544.39 Z" fill="#000000" fill-rule="evenodd" fill-opacity="1" /><path clip-path="url(#clip220)" d="M 0 0 M1486.7 1556.84 L1486.7 1575.74 L1480.81 1575.74 L1480.81 1526.54 L1486.7 1526.54 L1486.7 1531.95 Q1488.54 1528.77 1491.34 1527.24 Q1494.18 1525.68 1498.09 1525.68 Q1504.58 1525.68 1508.63 1530.83 Q1512.7 1535.99 1512.7 1544.39 Q1512.7 1552.8 1508.63 1557.95 Q1504.58 1563.11 1498.09 1563.11 Q1494.18 1563.11 1491.34 1561.58 Q1488.54 1560.02 1486.7 1556.84 M1506.62 1544.39 Q1506.62 1537.93 1503.95 1534.27 Q1501.31 1530.58 1496.66 1530.58 Q1492.01 1530.58 1489.34 1534.27 Q1486.7 1537.93 1486.7 1544.39 Q1486.7 1550.85 1489.34 1554.55 Q1492.01 1558.21 1496.66 1558.21 Q1501.31 1558.21 1503.95 1554.55 Q1506.62 1550.85 1506.62 1544.39 Z" fill="#000000" fill-rule="evenodd" fill-opacity="1" /><path clip-path="url(#clip220)" d="M 0 0 M1539.5 1532.01 Q1538.51 1531.44 1537.34 1531.18 Q1536.19 1530.9 1534.79 1530.9 Q1529.82 1530.9 1527.15 1534.14 Q1524.51 1537.36 1524.51 1543.41 L1524.51 1562.19 L1518.62 1562.19 L1518.62 1526.54 L1524.51 1526.54 L1524.51 1532.08 Q1526.35 1528.83 1529.31 1527.27 Q1532.27 1525.68 1536.51 1525.68 Q1537.11 1525.68 1537.84 1525.77 Q1538.58 1525.84 1539.47 1526 L1539.5 1532.01 Z" fill="#000000" fill-rule="evenodd" fill-opacity="1" /><path clip-path="url(#clip220)" d="M 0 0 M1558.02 1530.64 Q1553.31 1530.64 1550.58 1534.34 Q1547.84 1538 1547.84 1544.39 Q1547.84 1550.79 1550.54 1554.48 Q1553.28 1558.14 1558.02 1558.14 Q1562.7 1558.14 1565.44 1554.45 Q1568.18 1550.76 1568.18 1544.39 Q1568.18 1538.06 1565.44 1534.37 Q1562.7 1530.64 1558.02 1530.64 M1558.02 1525.68 Q1565.66 1525.68 1570.02 1530.64 Q1574.38 1535.61 1574.38 1544.39 Q1574.38 1553.15 1570.02 1558.14 Q1565.66 1563.11 1558.02 1563.11 Q1550.35 1563.11 1545.99 1558.14 Q1541.66 1553.15 1541.66 1544.39 Q1541.66 1535.61 1545.99 1530.64 Q1550.35 1525.68 1558.02 1525.68 Z" fill="#000000" fill-rule="evenodd" fill-opacity="1" /><path clip-path="url(#clip220)" d="M 0 0 M1608.15 1526.54 L1595.26 1543.88 L1608.82 1562.19 L1601.92 1562.19 L1591.54 1548.18 L1581.16 1562.19 L1574.26 1562.19 L1588.1 1543.53 L1575.43 1526.54 L1582.34 1526.54 L1591.79 1539.24 L1601.25 1526.54 L1608.15 1526.54 Z" fill="#000000" fill-rule="evenodd" fill-opacity="1" /><path clip-path="url(#clip220)" d="M 0 0 M1614.97 1526.54 L1620.82 1526.54 L1620.82 1562.19 L1614.97 1562.19 L1614.97 1526.54 M1614.97 1512.66 L1620.82 1512.66 L1620.82 1520.08 L1614.97 1520.08 L1614.97 1512.66 Z" fill="#000000" fill-rule="evenodd" fill-opacity="1" /><path clip-path="url(#clip220)" d="M 0 0 M1654.72 1533.38 Q1656.92 1529.43 1659.97 1527.56 Q1663.03 1525.68 1667.16 1525.68 Q1672.73 1525.68 1675.76 1529.59 Q1678.78 1533.48 1678.78 1540.67 L1678.78 1562.19 L1672.89 1562.19 L1672.89 1540.86 Q1672.89 1535.74 1671.08 1533.25 Q1669.26 1530.77 1665.54 1530.77 Q1660.99 1530.77 1658.35 1533.79 Q1655.71 1536.82 1655.71 1542.04 L1655.71 1562.19 L1649.82 1562.19 L1649.82 1540.86 Q1649.82 1535.7 1648 1533.25 Q1646.19 1530.77 1642.4 1530.77 Q1637.91 1530.77 1635.27 1533.83 Q1632.63 1536.85 1632.63 1542.04 L1632.63 1562.19 L1626.74 1562.19 L1626.74 1526.54 L1632.63 1526.54 L1632.63 1532.08 Q1634.64 1528.8 1637.44 1527.24 Q1640.24 1525.68 1644.09 1525.68 Q1647.97 1525.68 1650.68 1527.65 Q1653.41 1529.62 1654.72 1533.38 Z" fill="#000000" fill-rule="evenodd" fill-opacity="1" /><path clip-path="url(#clip220)" d="M 0 0 M1701.13 1544.27 Q1694.03 1544.27 1691.29 1545.89 Q1688.55 1547.51 1688.55 1551.43 Q1688.55 1554.55 1690.59 1556.39 Q1692.66 1558.21 1696.19 1558.21 Q1701.06 1558.21 1703.99 1554.77 Q1706.95 1551.3 1706.95 1545.57 L1706.95 1544.27 L1701.13 1544.27 M1712.81 1541.85 L1712.81 1562.19 L1706.95 1562.19 L1706.95 1556.77 Q1704.94 1560.02 1701.95 1561.58 Q1698.96 1563.11 1694.63 1563.11 Q1689.16 1563.11 1685.91 1560.05 Q1682.7 1556.97 1682.7 1551.81 Q1682.7 1545.79 1686.71 1542.74 Q1690.75 1539.68 1698.74 1539.68 L1706.95 1539.68 L1706.95 1539.11 Q1706.95 1535.07 1704.28 1532.87 Q1701.63 1530.64 1696.83 1530.64 Q1693.77 1530.64 1690.88 1531.38 Q1687.98 1532.11 1685.31 1533.57 L1685.31 1528.16 Q1688.52 1526.92 1691.54 1526.31 Q1694.57 1525.68 1697.43 1525.68 Q1705.17 1525.68 1708.99 1529.69 Q1712.81 1533.7 1712.81 1541.85 Z" fill="#000000" fill-rule="evenodd" fill-opacity="1" /><path clip-path="url(#clip220)" d="M 0 0 M1724.74 1516.42 L1724.74 1526.54 L1736.8 1526.54 L1736.8 1531.09 L1724.74 1531.09 L1724.74 1550.44 Q1724.74 1554.8 1725.92 1556.04 Q1727.13 1557.28 1730.79 1557.28 L1736.8 1557.28 L1736.8 1562.19 L1730.79 1562.19 Q1724.01 1562.19 1721.43 1559.67 Q1718.85 1557.12 1718.85 1550.44 L1718.85 1531.09 L1714.56 1531.09 L1714.56 1526.54 L1718.85 1526.54 L1718.85 1516.42 L1724.74 1516.42 Z" fill="#000000" fill-rule="evenodd" fill-opacity="1" /><path clip-path="url(#clip220)" d="M 0 0 M1773.44 1542.9 L1773.44 1545.76 L1746.51 1545.76 Q1746.89 1551.81 1750.14 1554.99 Q1753.42 1558.14 1759.24 1558.14 Q1762.62 1558.14 1765.77 1557.32 Q1768.95 1556.49 1772.07 1554.83 L1772.07 1560.37 Q1768.92 1561.71 1765.61 1562.41 Q1762.3 1563.11 1758.89 1563.11 Q1750.36 1563.11 1745.37 1558.14 Q1740.4 1553.18 1740.4 1544.71 Q1740.4 1535.96 1745.11 1530.83 Q1749.85 1525.68 1757.88 1525.68 Q1765.07 1525.68 1769.24 1530.33 Q1773.44 1534.94 1773.44 1542.9 M1767.58 1541.18 Q1767.52 1536.37 1764.88 1533.51 Q1762.27 1530.64 1757.94 1530.64 Q1753.04 1530.64 1750.08 1533.41 Q1747.15 1536.18 1746.7 1541.21 L1767.58 1541.18 Z" fill="#000000" fill-rule="evenodd" fill-opacity="1" /><path clip-path="url(#clip220)" d="M 0 0 M1793.27 1512.66 L1793.27 1570.78 L1779.77 1570.78 L1779.77 1566.23 L1787.38 1566.23 L1787.38 1517.21 L1779.77 1517.21 L1779.77 1512.66 L1793.27 1512.66 Z" fill="#000000" fill-rule="evenodd" fill-opacity="1" /><polyline clip-path="url(#clip222)" style="stroke:#000000; stroke-width:2; stroke-opacity:0.1; fill:none" points="
  2352.76,1287.71 261.324,1287.71 
  "/>
<polyline clip-path="url(#clip222)" style="stroke:#000000; stroke-width:2; stroke-opacity:0.1; fill:none" points="
  2352.76,1070.82 261.324,1070.82 
  "/>
<polyline clip-path="url(#clip222)" style="stroke:#000000; stroke-width:2; stroke-opacity:0.1; fill:none" points="
  2352.76,853.938 261.324,853.938 
  "/>
<polyline clip-path="url(#clip222)" style="stroke:#000000; stroke-width:2; stroke-opacity:0.1; fill:none" points="
  2352.76,637.054 261.324,637.054 
  "/>
<polyline clip-path="url(#clip222)" style="stroke:#000000; stroke-width:2; stroke-opacity:0.1; fill:none" points="
  2352.76,420.17 261.324,420.17 
  "/>
<polyline clip-path="url(#clip222)" style="stroke:#000000; stroke-width:2; stroke-opacity:0.1; fill:none" points="
  2352.76,203.286 261.324,203.286 
  "/>
<polyline clip-path="url(#clip220)" style="stroke:#000000; stroke-width:4; stroke-opacity:1; fill:none" points="
  261.324,1410.9 261.324,123.472 
  "/>
<polyline clip-path="url(#clip220)" style="stroke:#000000; stroke-width:4; stroke-opacity:1; fill:none" points="
  261.324,1287.71 286.422,1287.71 
  "/>
<polyline clip-path="url(#clip220)" style="stroke:#000000; stroke-width:4; stroke-opacity:1; fill:none" points="
  261.324,1070.82 286.422,1070.82 
  "/>
<polyline clip-path="url(#clip220)" style="stroke:#000000; stroke-width:4; stroke-opacity:1; fill:none" points="
  261.324,853.938 286.422,853.938 
  "/>
<polyline clip-path="url(#clip220)" style="stroke:#000000; stroke-width:4; stroke-opacity:1; fill:none" points="
  261.324,637.054 286.422,637.054 
  "/>
<polyline clip-path="url(#clip220)" style="stroke:#000000; stroke-width:4; stroke-opacity:1; fill:none" points="
  261.324,420.17 286.422,420.17 
  "/>
<polyline clip-path="url(#clip220)" style="stroke:#000000; stroke-width:4; stroke-opacity:1; fill:none" points="
  261.324,203.286 286.422,203.286 
  "/>
<path clip-path="url(#clip220)" d="M 0 0 M114.931 1301.05 L122.57 1301.05 L122.57 1274.69 L114.26 1276.35 L114.26 1272.09 L122.524 1270.43 L127.2 1270.43 L127.2 1301.05 L134.839 1301.05 L134.839 1304.99 L114.931 1304.99 L114.931 1301.05 Z" fill="#000000" fill-rule="evenodd" fill-opacity="1" /><path clip-path="url(#clip220)" d="M 0 0 M152.755 1274.5 L140.95 1292.95 L152.755 1292.95 L152.755 1274.5 M151.528 1270.43 L157.408 1270.43 L157.408 1292.95 L162.339 1292.95 L162.339 1296.84 L157.408 1296.84 L157.408 1304.99 L152.755 1304.99 L152.755 1296.84 L137.154 1296.84 L137.154 1292.32 L151.528 1270.43 Z" fill="#000000" fill-rule="evenodd" fill-opacity="1" /><path clip-path="url(#clip220)" d="M 0 0 M167.408 1299.11 L172.292 1299.11 L172.292 1304.99 L167.408 1304.99 L167.408 1299.11 Z" fill="#000000" fill-rule="evenodd" fill-opacity="1" /><path clip-path="url(#clip220)" d="M 0 0 M177.408 1270.43 L195.764 1270.43 L195.764 1274.36 L181.69 1274.36 L181.69 1282.83 Q182.709 1282.49 183.727 1282.32 Q184.746 1282.14 185.764 1282.14 Q191.551 1282.14 194.931 1285.31 Q198.311 1288.48 198.311 1293.9 Q198.311 1299.48 194.838 1302.58 Q191.366 1305.66 185.047 1305.66 Q182.871 1305.66 180.602 1305.29 Q178.357 1304.92 175.95 1304.18 L175.95 1299.48 Q178.033 1300.61 180.255 1301.17 Q182.477 1301.72 184.954 1301.72 Q188.959 1301.72 191.297 1299.62 Q193.635 1297.51 193.635 1293.9 Q193.635 1290.29 191.297 1288.18 Q188.959 1286.07 184.954 1286.07 Q183.079 1286.07 181.204 1286.49 Q179.352 1286.91 177.408 1287.79 L177.408 1270.43 Z" fill="#000000" fill-rule="evenodd" fill-opacity="1" /><path clip-path="url(#clip220)" d="M 0 0 M213.38 1273.51 Q209.769 1273.51 207.94 1277.07 Q206.135 1280.61 206.135 1287.74 Q206.135 1294.85 207.94 1298.41 Q209.769 1301.95 213.38 1301.95 Q217.014 1301.95 218.82 1298.41 Q220.648 1294.85 220.648 1287.74 Q220.648 1280.61 218.82 1277.07 Q217.014 1273.51 213.38 1273.51 M213.38 1269.8 Q219.19 1269.8 222.246 1274.41 Q225.324 1278.99 225.324 1287.74 Q225.324 1296.47 222.246 1301.07 Q219.19 1305.66 213.38 1305.66 Q207.57 1305.66 204.491 1301.07 Q201.436 1296.47 201.436 1287.74 Q201.436 1278.99 204.491 1274.41 Q207.57 1269.8 213.38 1269.8 Z" fill="#000000" fill-rule="evenodd" fill-opacity="1" /><path clip-path="url(#clip220)" d="M 0 0 M115.834 1084.17 L123.473 1084.17 L123.473 1057.8 L115.163 1059.47 L115.163 1055.21 L123.427 1053.54 L128.103 1053.54 L128.103 1084.17 L135.742 1084.17 L135.742 1088.1 L115.834 1088.1 L115.834 1084.17 Z" fill="#000000" fill-rule="evenodd" fill-opacity="1" /><path clip-path="url(#clip220)" d="M 0 0 M153.658 1057.62 L141.853 1076.07 L153.658 1076.07 L153.658 1057.62 M152.431 1053.54 L158.311 1053.54 L158.311 1076.07 L163.241 1076.07 L163.241 1079.95 L158.311 1079.95 L158.311 1088.1 L153.658 1088.1 L153.658 1079.95 L138.056 1079.95 L138.056 1075.44 L152.431 1053.54 Z" fill="#000000" fill-rule="evenodd" fill-opacity="1" /><path clip-path="url(#clip220)" d="M 0 0 M168.311 1082.22 L173.195 1082.22 L173.195 1088.1 L168.311 1088.1 L168.311 1082.22 Z" fill="#000000" fill-rule="evenodd" fill-opacity="1" /><path clip-path="url(#clip220)" d="M 0 0 M177.084 1053.54 L199.306 1053.54 L199.306 1055.53 L186.76 1088.1 L181.876 1088.1 L193.681 1057.48 L177.084 1057.48 L177.084 1053.54 Z" fill="#000000" fill-rule="evenodd" fill-opacity="1" /><path clip-path="url(#clip220)" d="M 0 0 M204.422 1053.54 L222.778 1053.54 L222.778 1057.48 L208.704 1057.48 L208.704 1065.95 Q209.723 1065.6 210.741 1065.44 Q211.76 1065.26 212.778 1065.26 Q218.565 1065.26 221.945 1068.43 Q225.324 1071.6 225.324 1077.01 Q225.324 1082.59 221.852 1085.69 Q218.38 1088.77 212.061 1088.77 Q209.885 1088.77 207.616 1088.4 Q205.371 1088.03 202.963 1087.29 L202.963 1082.59 Q205.047 1083.73 207.269 1084.28 Q209.491 1084.84 211.968 1084.84 Q215.973 1084.84 218.311 1082.73 Q220.648 1080.63 220.648 1077.01 Q220.648 1073.4 218.311 1071.3 Q215.973 1069.19 211.968 1069.19 Q210.093 1069.19 208.218 1069.61 Q206.366 1070.02 204.422 1070.9 L204.422 1053.54 Z" fill="#000000" fill-rule="evenodd" fill-opacity="1" /><path clip-path="url(#clip220)" d="M 0 0 M115.418 867.283 L123.056 867.283 L123.056 840.917 L114.746 842.584 L114.746 838.325 L123.01 836.658 L127.686 836.658 L127.686 867.283 L135.325 867.283 L135.325 871.218 L115.418 871.218 L115.418 867.283 Z" fill="#000000" fill-rule="evenodd" fill-opacity="1" /><path clip-path="url(#clip220)" d="M 0 0 M140.441 836.658 L158.797 836.658 L158.797 840.593 L144.723 840.593 L144.723 849.065 Q145.741 848.718 146.76 848.556 Q147.778 848.371 148.797 848.371 Q154.584 848.371 157.964 851.542 Q161.343 854.714 161.343 860.13 Q161.343 865.709 157.871 868.811 Q154.399 871.889 148.079 871.889 Q145.904 871.889 143.635 871.519 Q141.39 871.149 138.982 870.408 L138.982 865.709 Q141.066 866.843 143.288 867.399 Q145.51 867.954 147.987 867.954 Q151.991 867.954 154.329 865.848 Q156.667 863.741 156.667 860.13 Q156.667 856.519 154.329 854.413 Q151.991 852.306 147.987 852.306 Q146.112 852.306 144.237 852.723 Q142.385 853.139 140.441 854.019 L140.441 836.658 Z" fill="#000000" fill-rule="evenodd" fill-opacity="1" /><path clip-path="url(#clip220)" d="M 0 0 M166.413 865.338 L171.297 865.338 L171.297 871.218 L166.413 871.218 L166.413 865.338 Z" fill="#000000" fill-rule="evenodd" fill-opacity="1" /><path clip-path="url(#clip220)" d="M 0 0 M186.366 839.737 Q182.755 839.737 180.926 843.302 Q179.121 846.843 179.121 853.973 Q179.121 861.079 180.926 864.644 Q182.755 868.186 186.366 868.186 Q190 868.186 191.806 864.644 Q193.635 861.079 193.635 853.973 Q193.635 846.843 191.806 843.302 Q190 839.737 186.366 839.737 M186.366 836.033 Q192.176 836.033 195.232 840.64 Q198.311 845.223 198.311 853.973 Q198.311 862.7 195.232 867.306 Q192.176 871.889 186.366 871.889 Q180.556 871.889 177.477 867.306 Q174.422 862.7 174.422 853.973 Q174.422 845.223 177.477 840.64 Q180.556 836.033 186.366 836.033 Z" fill="#000000" fill-rule="evenodd" fill-opacity="1" /><path clip-path="url(#clip220)" d="M 0 0 M213.38 839.737 Q209.769 839.737 207.94 843.302 Q206.135 846.843 206.135 853.973 Q206.135 861.079 207.94 864.644 Q209.769 868.186 213.38 868.186 Q217.014 868.186 218.82 864.644 Q220.648 861.079 220.648 853.973 Q220.648 846.843 218.82 843.302 Q217.014 839.737 213.38 839.737 M213.38 836.033 Q219.19 836.033 222.246 840.64 Q225.324 845.223 225.324 853.973 Q225.324 862.7 222.246 867.306 Q219.19 871.889 213.38 871.889 Q207.57 871.889 204.491 867.306 Q201.436 862.7 201.436 853.973 Q201.436 845.223 204.491 840.64 Q207.57 836.033 213.38 836.033 Z" fill="#000000" fill-rule="evenodd" fill-opacity="1" /><path clip-path="url(#clip220)" d="M 0 0 M118.01 650.399 L125.649 650.399 L125.649 624.033 L117.339 625.7 L117.339 621.441 L125.603 619.774 L130.279 619.774 L130.279 650.399 L137.917 650.399 L137.917 654.334 L118.01 654.334 L118.01 650.399 Z" fill="#000000" fill-rule="evenodd" fill-opacity="1" /><path clip-path="url(#clip220)" d="M 0 0 M143.033 619.774 L161.39 619.774 L161.39 623.709 L147.316 623.709 L147.316 632.181 Q148.334 631.834 149.353 631.672 Q150.371 631.487 151.39 631.487 Q157.177 631.487 160.556 634.658 Q163.936 637.829 163.936 643.246 Q163.936 648.825 160.464 651.926 Q156.991 655.005 150.672 655.005 Q148.496 655.005 146.228 654.635 Q143.982 654.264 141.575 653.524 L141.575 648.825 Q143.658 649.959 145.88 650.514 Q148.103 651.07 150.579 651.07 Q154.584 651.07 156.922 648.964 Q159.26 646.857 159.26 643.246 Q159.26 639.635 156.922 637.528 Q154.584 635.422 150.579 635.422 Q148.704 635.422 146.829 635.839 Q144.978 636.255 143.033 637.135 L143.033 619.774 Z" fill="#000000" fill-rule="evenodd" fill-opacity="1" /><path clip-path="url(#clip220)" d="M 0 0 M169.005 648.454 L173.889 648.454 L173.889 654.334 L169.005 654.334 L169.005 648.454 Z" fill="#000000" fill-rule="evenodd" fill-opacity="1" /><path clip-path="url(#clip220)" d="M 0 0 M182.987 650.399 L199.306 650.399 L199.306 654.334 L177.362 654.334 L177.362 650.399 Q180.024 647.644 184.607 643.014 Q189.213 638.362 190.394 637.019 Q192.639 634.496 193.519 632.76 Q194.422 631.001 194.422 629.311 Q194.422 626.556 192.477 624.82 Q190.556 623.084 187.454 623.084 Q185.255 623.084 182.801 623.848 Q180.371 624.612 177.593 626.163 L177.593 621.441 Q180.417 620.306 182.871 619.728 Q185.325 619.149 187.362 619.149 Q192.732 619.149 195.926 621.834 Q199.121 624.519 199.121 629.01 Q199.121 631.14 198.311 633.061 Q197.524 634.959 195.417 637.552 Q194.838 638.223 191.737 641.44 Q188.635 644.635 182.987 650.399 Z" fill="#000000" fill-rule="evenodd" fill-opacity="1" /><path clip-path="url(#clip220)" d="M 0 0 M204.422 619.774 L222.778 619.774 L222.778 623.709 L208.704 623.709 L208.704 632.181 Q209.723 631.834 210.741 631.672 Q211.76 631.487 212.778 631.487 Q218.565 631.487 221.945 634.658 Q225.324 637.829 225.324 643.246 Q225.324 648.825 221.852 651.926 Q218.38 655.005 212.061 655.005 Q209.885 655.005 207.616 654.635 Q205.371 654.264 202.963 653.524 L202.963 648.825 Q205.047 649.959 207.269 650.514 Q209.491 651.07 211.968 651.07 Q215.973 651.07 218.311 648.964 Q220.648 646.857 220.648 643.246 Q220.648 639.635 218.311 637.528 Q215.973 635.422 211.968 635.422 Q210.093 635.422 208.218 635.839 Q206.366 636.255 204.422 637.135 L204.422 619.774 Z" fill="#000000" fill-rule="evenodd" fill-opacity="1" /><path clip-path="url(#clip220)" d="M 0 0 M116.413 433.515 L124.052 433.515 L124.052 407.149 L115.742 408.816 L115.742 404.556 L124.005 402.89 L128.681 402.89 L128.681 433.515 L136.32 433.515 L136.32 437.45 L116.413 437.45 L116.413 433.515 Z" fill="#000000" fill-rule="evenodd" fill-opacity="1" /><path clip-path="url(#clip220)" d="M 0 0 M141.436 402.89 L159.792 402.89 L159.792 406.825 L145.718 406.825 L145.718 415.297 Q146.737 414.95 147.755 414.788 Q148.774 414.603 149.792 414.603 Q155.579 414.603 158.959 417.774 Q162.339 420.945 162.339 426.362 Q162.339 431.94 158.866 435.042 Q155.394 438.121 149.075 438.121 Q146.899 438.121 144.63 437.751 Q142.385 437.38 139.978 436.64 L139.978 431.94 Q142.061 433.075 144.283 433.63 Q146.505 434.186 148.982 434.186 Q152.987 434.186 155.325 432.079 Q157.663 429.973 157.663 426.362 Q157.663 422.751 155.325 420.644 Q152.987 418.538 148.982 418.538 Q147.107 418.538 145.232 418.954 Q143.38 419.371 141.436 420.251 L141.436 402.89 Z" fill="#000000" fill-rule="evenodd" fill-opacity="1" /><path clip-path="url(#clip220)" d="M 0 0 M167.408 431.57 L172.292 431.57 L172.292 437.45 L167.408 437.45 L167.408 431.57 Z" fill="#000000" fill-rule="evenodd" fill-opacity="1" /><path clip-path="url(#clip220)" d="M 0 0 M177.408 402.89 L195.764 402.89 L195.764 406.825 L181.69 406.825 L181.69 415.297 Q182.709 414.95 183.727 414.788 Q184.746 414.603 185.764 414.603 Q191.551 414.603 194.931 417.774 Q198.311 420.945 198.311 426.362 Q198.311 431.94 194.838 435.042 Q191.366 438.121 185.047 438.121 Q182.871 438.121 180.602 437.751 Q178.357 437.38 175.95 436.64 L175.95 431.94 Q178.033 433.075 180.255 433.63 Q182.477 434.186 184.954 434.186 Q188.959 434.186 191.297 432.079 Q193.635 429.973 193.635 426.362 Q193.635 422.751 191.297 420.644 Q188.959 418.538 184.954 418.538 Q183.079 418.538 181.204 418.954 Q179.352 419.371 177.408 420.251 L177.408 402.89 Z" fill="#000000" fill-rule="evenodd" fill-opacity="1" /><path clip-path="url(#clip220)" d="M 0 0 M213.38 405.968 Q209.769 405.968 207.94 409.533 Q206.135 413.075 206.135 420.204 Q206.135 427.311 207.94 430.876 Q209.769 434.417 213.38 434.417 Q217.014 434.417 218.82 430.876 Q220.648 427.311 220.648 420.204 Q220.648 413.075 218.82 409.533 Q217.014 405.968 213.38 405.968 M213.38 402.265 Q219.19 402.265 222.246 406.871 Q225.324 411.454 225.324 420.204 Q225.324 428.931 222.246 433.538 Q219.19 438.121 213.38 438.121 Q207.57 438.121 204.491 433.538 Q201.436 428.931 201.436 420.204 Q201.436 411.454 204.491 406.871 Q207.57 402.265 213.38 402.265 Z" fill="#000000" fill-rule="evenodd" fill-opacity="1" /><path clip-path="url(#clip220)" d="M 0 0 M117.316 216.63 L124.955 216.63 L124.955 190.265 L116.644 191.931 L116.644 187.672 L124.908 186.006 L129.584 186.006 L129.584 216.63 L137.223 216.63 L137.223 220.566 L117.316 220.566 L117.316 216.63 Z" fill="#000000" fill-rule="evenodd" fill-opacity="1" /><path clip-path="url(#clip220)" d="M 0 0 M142.339 186.006 L160.695 186.006 L160.695 189.941 L146.621 189.941 L146.621 198.413 Q147.64 198.066 148.658 197.904 Q149.677 197.718 150.695 197.718 Q156.482 197.718 159.862 200.89 Q163.241 204.061 163.241 209.478 Q163.241 215.056 159.769 218.158 Q156.297 221.237 149.978 221.237 Q147.802 221.237 145.533 220.866 Q143.288 220.496 140.88 219.755 L140.88 215.056 Q142.964 216.191 145.186 216.746 Q147.408 217.302 149.885 217.302 Q153.89 217.302 156.228 215.195 Q158.565 213.089 158.565 209.478 Q158.565 205.867 156.228 203.76 Q153.89 201.654 149.885 201.654 Q148.01 201.654 146.135 202.07 Q144.283 202.487 142.339 203.367 L142.339 186.006 Z" fill="#000000" fill-rule="evenodd" fill-opacity="1" /><path clip-path="url(#clip220)" d="M 0 0 M168.311 214.686 L173.195 214.686 L173.195 220.566 L168.311 220.566 L168.311 214.686 Z" fill="#000000" fill-rule="evenodd" fill-opacity="1" /><path clip-path="url(#clip220)" d="M 0 0 M177.084 186.006 L199.306 186.006 L199.306 187.996 L186.76 220.566 L181.876 220.566 L193.681 189.941 L177.084 189.941 L177.084 186.006 Z" fill="#000000" fill-rule="evenodd" fill-opacity="1" /><path clip-path="url(#clip220)" d="M 0 0 M204.422 186.006 L222.778 186.006 L222.778 189.941 L208.704 189.941 L208.704 198.413 Q209.723 198.066 210.741 197.904 Q211.76 197.718 212.778 197.718 Q218.565 197.718 221.945 200.89 Q225.324 204.061 225.324 209.478 Q225.324 215.056 221.852 218.158 Q218.38 221.237 212.061 221.237 Q209.885 221.237 207.616 220.866 Q205.371 220.496 202.963 219.755 L202.963 215.056 Q205.047 216.191 207.269 216.746 Q209.491 217.302 211.968 217.302 Q215.973 217.302 218.311 215.195 Q220.648 213.089 220.648 209.478 Q220.648 205.867 218.311 203.76 Q215.973 201.654 211.968 201.654 Q210.093 201.654 208.218 202.07 Q206.366 202.487 204.422 203.367 L204.422 186.006 Z" fill="#000000" fill-rule="evenodd" fill-opacity="1" /><path clip-path="url(#clip220)" d="M 0 0 M81.2247 1083.89 L68.4614 1083.89 L68.4614 1094.4 L63.1779 1094.4 L63.1779 1077.53 L83.58 1077.53 Q86.2218 1081.25 87.5904 1085.74 Q88.9272 1090.23 88.9272 1095.32 Q88.9272 1106.46 82.4342 1112.76 Q75.9093 1119.03 64.2919 1119.03 Q52.6427 1119.03 46.1496 1112.76 Q39.6248 1106.46 39.6248 1095.32 Q39.6248 1090.67 40.7706 1086.5 Q41.9164 1082.3 44.1444 1078.77 L50.9876 1078.77 Q47.9639 1082.33 46.4361 1086.35 Q44.9083 1090.36 44.9083 1094.78 Q44.9083 1103.5 49.7781 1107.89 Q54.6479 1112.25 64.2919 1112.25 Q73.9041 1112.25 78.7739 1107.89 Q83.6436 1103.5 83.6436 1094.78 Q83.6436 1091.37 83.0707 1088.7 Q82.466 1086.03 81.2247 1083.89 Z" fill="#000000" fill-rule="evenodd" fill-opacity="1" /><path clip-path="url(#clip220)" d="M 0 0 M38.479 1071.39 L38.479 1065.53 L88.0042 1065.53 L88.0042 1071.39 L38.479 1071.39 Z" fill="#000000" fill-rule="evenodd" fill-opacity="1" /><path clip-path="url(#clip220)" d="M 0 0 M56.4621 1045.57 Q56.4621 1050.28 60.1542 1053.02 Q63.8145 1055.76 70.212 1055.76 Q76.6095 1055.76 80.3017 1053.05 Q83.9619 1050.32 83.9619 1045.57 Q83.9619 1040.89 80.2698 1038.16 Q76.5777 1035.42 70.212 1035.42 Q63.8781 1035.42 60.186 1038.16 Q56.4621 1040.89 56.4621 1045.57 M51.4968 1045.57 Q51.4968 1037.93 56.4621 1033.57 Q61.4273 1029.21 70.212 1029.21 Q78.9649 1029.21 83.9619 1033.57 Q88.9272 1037.93 88.9272 1045.57 Q88.9272 1053.24 83.9619 1057.6 Q78.9649 1061.93 70.212 1061.93 Q61.4273 1061.93 56.4621 1057.6 Q51.4968 1053.24 51.4968 1045.57 Z" fill="#000000" fill-rule="evenodd" fill-opacity="1" /><path clip-path="url(#clip220)" d="M 0 0 M70.212 997.48 Q63.7508 997.48 60.0905 1000.15 Q56.3984 1002.8 56.3984 1007.44 Q56.3984 1012.09 60.0905 1014.76 Q63.7508 1017.4 70.212 1017.4 Q76.6732 1017.4 80.3653 1014.76 Q84.0256 1012.09 84.0256 1007.44 Q84.0256 1002.8 80.3653 1000.15 Q76.6732 997.48 70.212 997.48 M57.7671 1017.4 Q54.5842 1015.56 53.0564 1012.76 Q51.4968 1009.92 51.4968 1006.01 Q51.4968 999.517 56.6531 995.475 Q61.8093 991.4 70.212 991.4 Q78.6147 991.4 83.771 995.475 Q88.9272 999.517 88.9272 1006.01 Q88.9272 1009.92 87.3994 1012.76 Q85.8398 1015.56 82.657 1017.4 L88.0042 1017.4 L88.0042 1023.29 L38.479 1023.29 L38.479 1017.4 L57.7671 1017.4 Z" fill="#000000" fill-rule="evenodd" fill-opacity="1" /><path clip-path="url(#clip220)" d="M 0 0 M70.0847 969.057 Q70.0847 976.155 71.7079 978.892 Q73.3312 981.629 77.2461 981.629 Q80.3653 981.629 82.2114 979.592 Q84.0256 977.523 84.0256 973.99 Q84.0256 969.121 80.5881 966.192 Q77.1188 963.232 71.3897 963.232 L70.0847 963.232 L70.0847 969.057 M67.6657 957.376 L88.0042 957.376 L88.0042 963.232 L82.5933 963.232 Q85.8398 965.237 87.3994 968.229 Q88.9272 971.221 88.9272 975.55 Q88.9272 981.024 85.8716 984.271 Q82.7843 987.486 77.6281 987.486 Q71.6125 987.486 68.5569 983.475 Q65.5014 979.433 65.5014 971.444 L65.5014 963.232 L64.9285 963.232 Q60.8862 963.232 58.6901 965.906 Q56.4621 968.548 56.4621 973.354 Q56.4621 976.409 57.1941 979.306 Q57.9262 982.202 59.3903 984.876 L53.9795 984.876 Q52.7381 981.661 52.1334 978.637 Q51.4968 975.614 51.4968 972.749 Q51.4968 965.015 55.5072 961.195 Q59.5176 957.376 67.6657 957.376 Z" fill="#000000" fill-rule="evenodd" fill-opacity="1" /><path clip-path="url(#clip220)" d="M 0 0 M38.479 951.233 L38.479 945.376 L88.0042 945.376 L88.0042 951.233 L38.479 951.233 Z" fill="#000000" fill-rule="evenodd" fill-opacity="1" /><path clip-path="url(#clip220)" d="M 0 0 M40.4842 924.847 L40.4842 884.648 L45.895 884.648 L45.895 901.517 L88.0042 901.517 L88.0042 907.978 L45.895 907.978 L45.895 924.847 L40.4842 924.847 Z" fill="#000000" fill-rule="evenodd" fill-opacity="1" /><path clip-path="url(#clip220)" d="M 0 0 M68.7161 859.089 L71.5806 859.089 L71.5806 886.016 Q77.6281 885.634 80.8109 882.388 Q83.9619 879.109 83.9619 873.285 Q83.9619 869.911 83.1344 866.76 Q82.3069 863.577 80.6518 860.458 L86.1899 860.458 Q87.5267 863.609 88.227 866.919 Q88.9272 870.229 88.9272 873.635 Q88.9272 882.165 83.9619 887.162 Q78.9967 892.127 70.5303 892.127 Q61.7774 892.127 56.6531 887.417 Q51.4968 882.674 51.4968 874.653 Q51.4968 867.46 56.1438 863.291 Q60.7589 859.089 68.7161 859.089 M66.9973 864.946 Q62.1912 865.009 59.3266 867.651 Q56.4621 870.261 56.4621 874.59 Q56.4621 879.491 59.2312 882.451 Q62.0002 885.38 67.0292 885.825 L66.9973 864.946 Z" fill="#000000" fill-rule="evenodd" fill-opacity="1" /><path clip-path="url(#clip220)" d="M 0 0 M59.1993 825.192 Q55.2526 822.996 53.3747 819.94 Q51.4968 816.885 51.4968 812.747 Q51.4968 807.177 55.4117 804.153 Q59.2948 801.13 66.4881 801.13 L88.0042 801.13 L88.0042 807.018 L66.679 807.018 Q61.5546 807.018 59.072 808.832 Q56.5894 810.646 56.5894 814.37 Q56.5894 818.922 59.6131 821.563 Q62.6368 824.205 67.8567 824.205 L88.0042 824.205 L88.0042 830.093 L66.679 830.093 Q61.5228 830.093 59.072 831.908 Q56.5894 833.722 56.5894 837.51 Q56.5894 841.997 59.6449 844.639 Q62.6686 847.281 67.8567 847.281 L88.0042 847.281 L88.0042 853.169 L52.3562 853.169 L52.3562 847.281 L57.8944 847.281 Q54.616 845.276 53.0564 842.475 Q51.4968 839.674 51.4968 835.823 Q51.4968 831.94 53.4702 829.234 Q55.4436 826.497 59.1993 825.192 Z" fill="#000000" fill-rule="evenodd" fill-opacity="1" /><path clip-path="url(#clip220)" d="M 0 0 M82.657 789.321 L101.563 789.321 L101.563 795.209 L52.3562 795.209 L52.3562 789.321 L57.7671 789.321 Q54.5842 787.475 53.0564 784.674 Q51.4968 781.841 51.4968 777.927 Q51.4968 771.433 56.6531 767.391 Q61.8093 763.317 70.212 763.317 Q78.6147 763.317 83.771 767.391 Q88.9272 771.433 88.9272 777.927 Q88.9272 781.841 87.3994 784.674 Q85.8398 787.475 82.657 789.321 M70.212 769.396 Q63.7508 769.396 60.0905 772.07 Q56.3984 774.712 56.3984 779.359 Q56.3984 784.006 60.0905 786.679 Q63.7508 789.321 70.212 789.321 Q76.6732 789.321 80.3653 786.679 Q84.0256 784.006 84.0256 779.359 Q84.0256 774.712 80.3653 772.07 Q76.6732 769.396 70.212 769.396 Z" fill="#000000" fill-rule="evenodd" fill-opacity="1" /><path clip-path="url(#clip220)" d="M 0 0 M68.7161 726.683 L71.5806 726.683 L71.5806 753.61 Q77.6281 753.228 80.8109 749.981 Q83.9619 746.703 83.9619 740.878 Q83.9619 737.504 83.1344 734.353 Q82.3069 731.17 80.6518 728.051 L86.1899 728.051 Q87.5267 731.202 88.227 734.512 Q88.9272 737.823 88.9272 741.228 Q88.9272 749.758 83.9619 754.755 Q78.9967 759.721 70.5303 759.721 Q61.7774 759.721 56.6531 755.01 Q51.4968 750.268 51.4968 742.247 Q51.4968 735.053 56.1438 730.884 Q60.7589 726.683 68.7161 726.683 M66.9973 732.539 Q62.1912 732.603 59.3266 735.244 Q56.4621 737.854 56.4621 742.183 Q56.4621 747.085 59.2312 750.045 Q62.0002 752.973 67.0292 753.419 L66.9973 732.539 Z" fill="#000000" fill-rule="evenodd" fill-opacity="1" /><path clip-path="url(#clip220)" d="M 0 0 M57.8307 699.883 Q57.2578 700.87 57.0032 702.047 Q56.7167 703.193 56.7167 704.594 Q56.7167 709.559 59.9632 712.232 Q63.1779 714.874 69.2253 714.874 L88.0042 714.874 L88.0042 720.762 L52.3562 720.762 L52.3562 714.874 L57.8944 714.874 Q54.6479 713.028 53.0883 710.068 Q51.4968 707.108 51.4968 702.875 Q51.4968 702.27 51.5923 701.538 Q51.656 700.806 51.8151 699.915 L57.8307 699.883 Z" fill="#000000" fill-rule="evenodd" fill-opacity="1" /><path clip-path="url(#clip220)" d="M 0 0 M70.0847 677.539 Q70.0847 684.637 71.7079 687.374 Q73.3312 690.112 77.2461 690.112 Q80.3653 690.112 82.2114 688.075 Q84.0256 686.006 84.0256 682.473 Q84.0256 677.603 80.5881 674.675 Q77.1188 671.715 71.3897 671.715 L70.0847 671.715 L70.0847 677.539 M67.6657 665.858 L88.0042 665.858 L88.0042 671.715 L82.5933 671.715 Q85.8398 673.72 87.3994 676.712 Q88.9272 679.704 88.9272 684.032 Q88.9272 689.507 85.8716 692.753 Q82.7843 695.968 77.6281 695.968 Q71.6125 695.968 68.5569 691.958 Q65.5014 687.915 65.5014 679.926 L65.5014 671.715 L64.9285 671.715 Q60.8862 671.715 58.6901 674.388 Q56.4621 677.03 56.4621 681.836 Q56.4621 684.892 57.1941 687.788 Q57.9262 690.685 59.3903 693.358 L53.9795 693.358 Q52.7381 690.143 52.1334 687.12 Q51.4968 684.096 51.4968 681.231 Q51.4968 673.497 55.5072 669.678 Q59.5176 665.858 67.6657 665.858 Z" fill="#000000" fill-rule="evenodd" fill-opacity="1" /><path clip-path="url(#clip220)" d="M 0 0 M42.2347 653.923 L52.3562 653.923 L52.3562 641.86 L56.9077 641.86 L56.9077 653.923 L76.2594 653.923 Q80.6199 653.923 81.8613 652.745 Q83.1026 651.535 83.1026 647.875 L83.1026 641.86 L88.0042 641.86 L88.0042 647.875 Q88.0042 654.655 85.4897 657.233 Q82.9434 659.811 76.2594 659.811 L56.9077 659.811 L56.9077 664.108 L52.3562 664.108 L52.3562 659.811 L42.2347 659.811 L42.2347 653.923 Z" fill="#000000" fill-rule="evenodd" fill-opacity="1" /><path clip-path="url(#clip220)" d="M 0 0 M73.9359 636.321 L52.3562 636.321 L52.3562 630.465 L73.7131 630.465 Q78.7739 630.465 81.3202 628.492 Q83.8346 626.518 83.8346 622.571 Q83.8346 617.829 80.8109 615.092 Q77.7872 612.323 72.5673 612.323 L52.3562 612.323 L52.3562 606.466 L88.0042 606.466 L88.0042 612.323 L82.5296 612.323 Q85.7762 614.455 87.3676 617.288 Q88.9272 620.089 88.9272 623.813 Q88.9272 629.956 85.1078 633.139 Q81.2883 636.321 73.9359 636.321 M51.4968 621.585 L51.4968 621.585 Z" fill="#000000" fill-rule="evenodd" fill-opacity="1" /><path clip-path="url(#clip220)" d="M 0 0 M57.8307 579.667 Q57.2578 580.653 57.0032 581.831 Q56.7167 582.977 56.7167 584.377 Q56.7167 589.342 59.9632 592.016 Q63.1779 594.658 69.2253 594.658 L88.0042 594.658 L88.0042 600.546 L52.3562 600.546 L52.3562 594.658 L57.8944 594.658 Q54.6479 592.812 53.0883 589.852 Q51.4968 586.892 51.4968 582.658 Q51.4968 582.054 51.5923 581.322 Q51.656 580.59 51.8151 579.698 L57.8307 579.667 Z" fill="#000000" fill-rule="evenodd" fill-opacity="1" /><path clip-path="url(#clip220)" d="M 0 0 M68.7161 544.464 L71.5806 544.464 L71.5806 571.391 Q77.6281 571.009 80.8109 567.763 Q83.9619 564.484 83.9619 558.66 Q83.9619 555.286 83.1344 552.135 Q82.3069 548.952 80.6518 545.833 L86.1899 545.833 Q87.5267 548.984 88.227 552.294 Q88.9272 555.604 88.9272 559.01 Q88.9272 567.54 83.9619 572.537 Q78.9967 577.502 70.5303 577.502 Q61.7774 577.502 56.6531 572.792 Q51.4968 568.049 51.4968 560.028 Q51.4968 552.835 56.1438 548.666 Q60.7589 544.464 68.7161 544.464 M66.9973 550.321 Q62.1912 550.384 59.3266 553.026 Q56.4621 555.636 56.4621 559.965 Q56.4621 564.866 59.2312 567.826 Q62.0002 570.755 67.0292 571.2 L66.9973 550.321 Z" fill="#000000" fill-rule="evenodd" fill-opacity="1" /><path clip-path="url(#clip220)" d="M 0 0 M38.5426 503.533 Q45.8632 507.798 53.0246 509.867 Q60.186 511.935 67.5384 511.935 Q74.8908 511.935 82.1159 509.867 Q89.3091 507.766 96.5979 503.533 L96.5979 508.625 Q89.1182 513.4 81.8931 515.787 Q74.668 518.142 67.5384 518.142 Q60.4406 518.142 53.2474 515.787 Q46.0542 513.431 38.5426 508.625 L38.5426 503.533 Z" fill="#000000" fill-rule="evenodd" fill-opacity="1" /><path clip-path="url(#clip220)" d="M 0 0 M43.7307 487.237 Q43.7307 489.783 45.5131 491.533 Q47.2636 493.284 49.8099 493.284 Q52.3244 493.284 54.0749 491.533 Q55.7937 489.783 55.7937 487.237 Q55.7937 484.69 54.0749 482.94 Q52.3244 481.189 49.8099 481.189 Q47.2955 481.189 45.5131 482.971 Q43.7307 484.722 43.7307 487.237 M39.6248 487.237 Q39.6248 485.199 40.4205 483.322 Q41.1844 481.444 42.6485 480.075 Q44.0808 478.611 45.895 477.879 Q47.7092 477.147 49.8099 477.147 Q54.0113 477.147 56.9395 480.107 Q59.8359 483.035 59.8359 487.3 Q59.8359 491.597 56.9713 494.462 Q54.1068 497.326 49.8099 497.326 Q45.5449 497.326 42.5848 494.398 Q39.6248 491.47 39.6248 487.237 Z" fill="#000000" fill-rule="evenodd" fill-opacity="1" /><path clip-path="url(#clip220)" d="M 0 0 M44.1444 435.165 L50.9239 435.165 Q47.9002 438.412 46.4043 442.104 Q44.9083 445.764 44.9083 449.902 Q44.9083 458.05 49.9054 462.378 Q54.8707 466.707 64.2919 466.707 Q73.6813 466.707 78.6784 462.378 Q83.6436 458.05 83.6436 449.902 Q83.6436 445.764 82.1477 442.104 Q80.6518 438.412 77.6281 435.165 L84.3439 435.165 Q86.6355 438.539 87.7814 442.326 Q88.9272 446.082 88.9272 450.284 Q88.9272 461.073 82.3387 467.28 Q75.7183 473.487 64.2919 473.487 Q52.8336 473.487 46.2451 467.28 Q39.6248 461.073 39.6248 450.284 Q39.6248 446.019 40.7706 442.263 Q41.8846 438.475 44.1444 435.165 Z" fill="#000000" fill-rule="evenodd" fill-opacity="1" /><path clip-path="url(#clip220)" d="M 0 0 M38.5426 429.945 L38.5426 424.853 Q46.0542 420.078 53.2474 417.723 Q60.4406 415.336 67.5384 415.336 Q74.668 415.336 81.8931 417.723 Q89.1182 420.078 96.5979 424.853 L96.5979 429.945 Q89.3091 425.712 82.1159 423.643 Q74.8908 421.542 67.5384 421.542 Q60.186 421.542 53.0246 423.643 Q45.8632 425.712 38.5426 429.945 Z" fill="#000000" fill-rule="evenodd" fill-opacity="1" /><path clip-path="url(#clip220)" d="M 0 0 M414.018 12.096 L422.201 12.096 L422.201 72.576 L414.018 72.576 L414.018 12.096 Z" fill="#000000" fill-rule="evenodd" fill-opacity="1" /><path clip-path="url(#clip220)" d="M 0 0 M467.733 45.1919 L467.733 72.576 L460.28 72.576 L460.28 45.4349 Q460.28 38.994 457.768 35.7938 Q455.257 32.5936 450.233 32.5936 Q444.198 32.5936 440.714 36.4419 Q437.23 40.2903 437.23 46.9338 L437.23 72.576 L429.736 72.576 L429.736 27.2059 L437.23 27.2059 L437.23 34.2544 Q439.904 30.163 443.509 28.1376 Q447.155 26.1121 451.894 26.1121 Q459.713 26.1121 463.723 30.9732 Q467.733 35.7938 467.733 45.1919 Z" fill="#000000" fill-rule="evenodd" fill-opacity="1" /><path clip-path="url(#clip220)" d="M 0 0 M498.52 9.54393 L498.52 15.7418 L491.391 15.7418 Q487.38 15.7418 485.8 17.3622 Q484.261 18.9825 484.261 23.1955 L484.261 27.2059 L496.535 27.2059 L496.535 32.9987 L484.261 32.9987 L484.261 72.576 L476.767 72.576 L476.767 32.9987 L469.637 32.9987 L469.637 27.2059 L476.767 27.2059 L476.767 24.0462 Q476.767 16.471 480.291 13.0277 Q483.815 9.54393 491.472 9.54393 L498.52 9.54393 Z" fill="#000000" fill-rule="evenodd" fill-opacity="1" /><path clip-path="url(#clip220)" d="M 0 0 M506.338 9.54393 L513.792 9.54393 L513.792 72.576 L506.338 72.576 L506.338 9.54393 Z" fill="#000000" fill-rule="evenodd" fill-opacity="1" /><path clip-path="url(#clip220)" d="M 0 0 M520.841 54.671 L520.841 27.2059 L528.294 27.2059 L528.294 54.3874 Q528.294 60.8284 530.806 64.0691 Q533.317 67.2693 538.341 67.2693 Q544.376 67.2693 547.86 63.421 Q551.384 59.5726 551.384 52.9291 L551.384 27.2059 L558.838 27.2059 L558.838 72.576 L551.384 72.576 L551.384 65.6084 Q548.67 69.7404 545.065 71.7658 Q541.5 73.7508 536.761 73.7508 Q528.942 73.7508 524.892 68.8897 Q520.841 64.0286 520.841 54.671 M539.596 26.1121 L539.596 26.1121 Z" fill="#000000" fill-rule="evenodd" fill-opacity="1" /><path clip-path="url(#clip220)" d="M 0 0 M605.464 48.0275 L605.464 51.6733 L571.193 51.6733 Q571.679 59.3701 575.811 63.421 Q579.984 67.4314 587.397 67.4314 Q591.691 67.4314 595.701 66.3781 Q599.752 65.3249 603.722 63.2184 L603.722 70.267 Q599.712 71.9684 595.499 72.8596 Q591.286 73.7508 586.951 73.7508 Q576.095 73.7508 569.735 67.4314 Q563.416 61.1119 563.416 50.3365 Q563.416 39.1965 569.411 32.6746 Q575.447 26.1121 585.655 26.1121 Q594.81 26.1121 600.117 32.0264 Q605.464 37.9003 605.464 48.0275 M598.01 45.84 Q597.929 39.7232 594.567 36.0774 Q591.245 32.4315 585.736 32.4315 Q579.498 32.4315 575.73 35.9558 Q572.004 39.4801 571.436 45.8805 L598.01 45.84 Z" fill="#000000" fill-rule="evenodd" fill-opacity="1" /><path clip-path="url(#clip220)" d="M 0 0 M650.996 45.1919 L650.996 72.576 L643.543 72.576 L643.543 45.4349 Q643.543 38.994 641.031 35.7938 Q638.519 32.5936 633.496 32.5936 Q627.46 32.5936 623.977 36.4419 Q620.493 40.2903 620.493 46.9338 L620.493 72.576 L612.999 72.576 L612.999 27.2059 L620.493 27.2059 L620.493 34.2544 Q623.166 30.163 626.772 28.1376 Q630.418 26.1121 635.157 26.1121 Q642.975 26.1121 646.986 30.9732 Q650.996 35.7938 650.996 45.1919 Z" fill="#000000" fill-rule="evenodd" fill-opacity="1" /><path clip-path="url(#clip220)" d="M 0 0 M691.465 28.9478 L691.465 35.9153 Q688.305 34.1734 685.105 33.3227 Q681.945 32.4315 678.704 32.4315 Q671.453 32.4315 667.443 37.0496 Q663.432 41.6271 663.432 49.9314 Q663.432 58.2358 667.443 62.8538 Q671.453 67.4314 678.704 67.4314 Q681.945 67.4314 685.105 66.5807 Q688.305 65.6895 691.465 63.9476 L691.465 70.8341 Q688.346 72.2924 684.983 73.0216 Q681.662 73.7508 677.894 73.7508 Q667.645 73.7508 661.61 67.3098 Q655.574 60.8689 655.574 49.9314 Q655.574 38.832 661.65 32.472 Q667.767 26.1121 678.38 26.1121 Q681.824 26.1121 685.105 26.8413 Q688.386 27.5299 691.465 28.9478 Z" fill="#000000" fill-rule="evenodd" fill-opacity="1" /><path clip-path="url(#clip220)" d="M 0 0 M738.091 48.0275 L738.091 51.6733 L703.82 51.6733 Q704.306 59.3701 708.438 63.421 Q712.61 67.4314 720.024 67.4314 Q724.318 67.4314 728.328 66.3781 Q732.379 65.3249 736.349 63.2184 L736.349 70.267 Q732.338 71.9684 728.125 72.8596 Q723.912 73.7508 719.578 73.7508 Q708.722 73.7508 702.362 67.4314 Q696.042 61.1119 696.042 50.3365 Q696.042 39.1965 702.038 32.6746 Q708.073 26.1121 718.282 26.1121 Q727.437 26.1121 732.743 32.0264 Q738.091 37.9003 738.091 48.0275 M730.637 45.84 Q730.556 39.7232 727.194 36.0774 Q723.872 32.4315 718.363 32.4315 Q712.124 32.4315 708.357 35.9558 Q704.63 39.4801 704.063 45.8805 L730.637 45.84 Z" fill="#000000" fill-rule="evenodd" fill-opacity="1" /><path clip-path="url(#clip220)" d="M 0 0 M789.861 32.4315 Q783.866 32.4315 780.382 37.1306 Q776.898 41.7891 776.898 49.9314 Q776.898 58.0738 780.342 62.7728 Q783.825 67.4314 789.861 67.4314 Q795.816 67.4314 799.3 62.7323 Q802.784 58.0333 802.784 49.9314 Q802.784 41.8701 799.3 37.1711 Q795.816 32.4315 789.861 32.4315 M789.861 26.1121 Q799.583 26.1121 805.133 32.4315 Q810.683 38.7509 810.683 49.9314 Q810.683 61.0714 805.133 67.4314 Q799.583 73.7508 789.861 73.7508 Q780.099 73.7508 774.549 67.4314 Q769.04 61.0714 769.04 49.9314 Q769.04 38.7509 774.549 32.4315 Q780.099 26.1121 789.861 26.1121 Z" fill="#000000" fill-rule="evenodd" fill-opacity="1" /><path clip-path="url(#clip220)" d="M 0 0 M841.47 9.54393 L841.47 15.7418 L834.34 15.7418 Q830.33 15.7418 828.75 17.3622 Q827.211 18.9825 827.211 23.1955 L827.211 27.2059 L839.485 27.2059 L839.485 32.9987 L827.211 32.9987 L827.211 72.576 L819.716 72.576 L819.716 32.9987 L812.587 32.9987 L812.587 27.2059 L819.716 27.2059 L819.716 24.0462 Q819.716 16.471 823.241 13.0277 Q826.765 9.54393 834.421 9.54393 L841.47 9.54393 Z" fill="#000000" fill-rule="evenodd" fill-opacity="1" /><path clip-path="url(#clip220)" d="M 0 0 M882.87 65.7705 L882.87 89.8329 L875.376 89.8329 L875.376 27.2059 L882.87 27.2059 L882.87 34.0924 Q885.219 30.0415 888.784 28.0971 Q892.39 26.1121 897.372 26.1121 Q905.636 26.1121 910.781 32.6746 Q915.966 39.2371 915.966 49.9314 Q915.966 60.6258 910.781 67.1883 Q905.636 73.7508 897.372 73.7508 Q892.39 73.7508 888.784 71.8063 Q885.219 69.8214 882.87 65.7705 M908.229 49.9314 Q908.229 41.7081 904.826 37.0496 Q901.464 32.3505 895.549 32.3505 Q889.635 32.3505 886.232 37.0496 Q882.87 41.7081 882.87 49.9314 Q882.87 58.1548 886.232 62.8538 Q889.635 67.5124 895.549 67.5124 Q901.464 67.5124 904.826 62.8538 Q908.229 58.1548 908.229 49.9314 Z" fill="#000000" fill-rule="evenodd" fill-opacity="1" /><path clip-path="url(#clip220)" d="M 0 0 M923.784 27.2059 L931.238 27.2059 L931.238 72.576 L923.784 72.576 L923.784 27.2059 M923.784 9.54393 L931.238 9.54393 L931.238 18.9825 L923.784 18.9825 L923.784 9.54393 Z" fill="#000000" fill-rule="evenodd" fill-opacity="1" /><path clip-path="url(#clip220)" d="M 0 0 M965.346 34.1734 Q964.091 33.4443 962.592 33.1202 Q961.133 32.7556 959.351 32.7556 Q953.032 32.7556 949.629 36.8875 Q946.267 40.9789 946.267 48.6757 L946.267 72.576 L938.772 72.576 L938.772 27.2059 L946.267 27.2059 L946.267 34.2544 Q948.616 30.1225 952.383 28.1376 Q956.151 26.1121 961.539 26.1121 Q962.308 26.1121 963.24 26.2337 Q964.172 26.3147 965.306 26.5172 L965.346 34.1734 Z" fill="#000000" fill-rule="evenodd" fill-opacity="1" /><path clip-path="url(#clip220)" d="M 0 0 M993.784 49.7694 Q984.75 49.7694 981.266 51.8354 Q977.783 53.9013 977.783 58.8839 Q977.783 62.8538 980.375 65.2034 Q983.008 67.5124 987.505 67.5124 Q993.703 67.5124 997.43 63.1374 Q1001.2 58.7219 1001.2 51.4303 L1001.2 49.7694 L993.784 49.7694 M1008.65 46.6907 L1008.65 72.576 L1001.2 72.576 L1001.2 65.6895 Q998.645 69.8214 994.837 71.8063 Q991.029 73.7508 985.52 73.7508 Q978.552 73.7508 974.42 69.8619 Q970.329 65.9325 970.329 59.3701 Q970.329 51.7138 975.433 47.825 Q980.578 43.9361 990.746 43.9361 L1001.2 43.9361 L1001.2 43.2069 Q1001.2 38.0623 997.794 35.2672 Q994.432 32.4315 988.315 32.4315 Q984.426 32.4315 980.74 33.3632 Q977.053 34.295 973.651 36.1584 L973.651 29.2718 Q977.742 27.692 981.59 26.9223 Q985.439 26.1121 989.085 26.1121 Q998.928 26.1121 1003.79 31.2163 Q1008.65 36.3204 1008.65 46.6907 Z" fill="#000000" fill-rule="evenodd" fill-opacity="1" /><path clip-path="url(#clip220)" d="M 0 0 M1023.84 14.324 L1023.84 27.2059 L1039.19 27.2059 L1039.19 32.9987 L1023.84 32.9987 L1023.84 57.6282 Q1023.84 63.1779 1025.34 64.7578 Q1026.88 66.3376 1031.54 66.3376 L1039.19 66.3376 L1039.19 72.576 L1031.54 72.576 Q1022.91 72.576 1019.63 69.3758 Q1016.35 66.1351 1016.35 57.6282 L1016.35 32.9987 L1010.88 32.9987 L1010.88 27.2059 L1016.35 27.2059 L1016.35 14.324 L1023.84 14.324 Z" fill="#000000" fill-rule="evenodd" fill-opacity="1" /><path clip-path="url(#clip220)" d="M 0 0 M1085.82 48.0275 L1085.82 51.6733 L1051.55 51.6733 Q1052.04 59.3701 1056.17 63.421 Q1060.34 67.4314 1067.75 67.4314 Q1072.05 67.4314 1076.06 66.3781 Q1080.11 65.3249 1084.08 63.2184 L1084.08 70.267 Q1080.07 71.9684 1075.86 72.8596 Q1071.64 73.7508 1067.31 73.7508 Q1056.45 73.7508 1050.09 67.4314 Q1043.77 61.1119 1043.77 50.3365 Q1043.77 39.1965 1049.77 32.6746 Q1055.8 26.1121 1066.01 26.1121 Q1075.17 26.1121 1080.47 32.0264 Q1085.82 37.9003 1085.82 48.0275 M1078.37 45.84 Q1078.29 39.7232 1074.92 36.0774 Q1071.6 32.4315 1066.09 32.4315 Q1059.85 32.4315 1056.09 35.9558 Q1052.36 39.4801 1051.79 45.8805 L1078.37 45.84 Z" fill="#000000" fill-rule="evenodd" fill-opacity="1" /><path clip-path="url(#clip220)" d="M 0 0 M1127.22 65.7705 L1127.22 89.8329 L1119.73 89.8329 L1119.73 27.2059 L1127.22 27.2059 L1127.22 34.0924 Q1129.57 30.0415 1133.13 28.0971 Q1136.74 26.1121 1141.72 26.1121 Q1149.99 26.1121 1155.13 32.6746 Q1160.32 39.2371 1160.32 49.9314 Q1160.32 60.6258 1155.13 67.1883 Q1149.99 73.7508 1141.72 73.7508 Q1136.74 73.7508 1133.13 71.8063 Q1129.57 69.8214 1127.22 65.7705 M1152.58 49.9314 Q1152.58 41.7081 1149.18 37.0496 Q1145.81 32.3505 1139.9 32.3505 Q1133.99 32.3505 1130.58 37.0496 Q1127.22 41.7081 1127.22 49.9314 Q1127.22 58.1548 1130.58 62.8538 Q1133.99 67.5124 1139.9 67.5124 Q1145.81 67.5124 1149.18 62.8538 Q1152.58 58.1548 1152.58 49.9314 Z" fill="#000000" fill-rule="evenodd" fill-opacity="1" /><path clip-path="url(#clip220)" d="M 0 0 M1185.72 32.4315 Q1179.72 32.4315 1176.24 37.1306 Q1172.75 41.7891 1172.75 49.9314 Q1172.75 58.0738 1176.2 62.7728 Q1179.68 67.4314 1185.72 67.4314 Q1191.67 67.4314 1195.15 62.7323 Q1198.64 58.0333 1198.64 49.9314 Q1198.64 41.8701 1195.15 37.1711 Q1191.67 32.4315 1185.72 32.4315 M1185.72 26.1121 Q1195.44 26.1121 1200.99 32.4315 Q1206.54 38.7509 1206.54 49.9314 Q1206.54 61.0714 1200.99 67.4314 Q1195.44 73.7508 1185.72 73.7508 Q1175.95 73.7508 1170.4 67.4314 Q1164.89 61.0714 1164.89 49.9314 Q1164.89 38.7509 1170.4 32.4315 Q1175.95 26.1121 1185.72 26.1121 Z" fill="#000000" fill-rule="evenodd" fill-opacity="1" /><path clip-path="url(#clip220)" d="M 0 0 M1221.57 65.7705 L1221.57 89.8329 L1214.07 89.8329 L1214.07 27.2059 L1221.57 27.2059 L1221.57 34.0924 Q1223.92 30.0415 1227.48 28.0971 Q1231.09 26.1121 1236.07 26.1121 Q1244.33 26.1121 1249.48 32.6746 Q1254.66 39.2371 1254.66 49.9314 Q1254.66 60.6258 1249.48 67.1883 Q1244.33 73.7508 1236.07 73.7508 Q1231.09 73.7508 1227.48 71.8063 Q1223.92 69.8214 1221.57 65.7705 M1246.92 49.9314 Q1246.92 41.7081 1243.52 37.0496 Q1240.16 32.3505 1234.25 32.3505 Q1228.33 32.3505 1224.93 37.0496 Q1221.57 41.7081 1221.57 49.9314 Q1221.57 58.1548 1224.93 62.8538 Q1228.33 67.5124 1234.25 67.5124 Q1240.16 67.5124 1243.52 62.8538 Q1246.92 58.1548 1246.92 49.9314 Z" fill="#000000" fill-rule="evenodd" fill-opacity="1" /><path clip-path="url(#clip220)" d="M 0 0 M1261.71 54.671 L1261.71 27.2059 L1269.16 27.2059 L1269.16 54.3874 Q1269.16 60.8284 1271.68 64.0691 Q1274.19 67.2693 1279.21 67.2693 Q1285.25 67.2693 1288.73 63.421 Q1292.25 59.5726 1292.25 52.9291 L1292.25 27.2059 L1299.71 27.2059 L1299.71 72.576 L1292.25 72.576 L1292.25 65.6084 Q1289.54 69.7404 1285.93 71.7658 Q1282.37 73.7508 1277.63 73.7508 Q1269.81 73.7508 1265.76 68.8897 Q1261.71 64.0286 1261.71 54.671 M1280.47 26.1121 L1280.47 26.1121 Z" fill="#000000" fill-rule="evenodd" fill-opacity="1" /><path clip-path="url(#clip220)" d="M 0 0 M1307.53 9.54393 L1314.98 9.54393 L1314.98 72.576 L1307.53 72.576 L1307.53 9.54393 Z" fill="#000000" fill-rule="evenodd" fill-opacity="1" /><path clip-path="url(#clip220)" d="M 0 0 M1343.42 49.7694 Q1334.38 49.7694 1330.9 51.8354 Q1327.42 53.9013 1327.42 58.8839 Q1327.42 62.8538 1330.01 65.2034 Q1332.64 67.5124 1337.14 67.5124 Q1343.34 67.5124 1347.06 63.1374 Q1350.83 58.7219 1350.83 51.4303 L1350.83 49.7694 L1343.42 49.7694 M1358.28 46.6907 L1358.28 72.576 L1350.83 72.576 L1350.83 65.6895 Q1348.28 69.8214 1344.47 71.8063 Q1340.66 73.7508 1335.15 73.7508 Q1328.19 73.7508 1324.05 69.8619 Q1319.96 65.9325 1319.96 59.3701 Q1319.96 51.7138 1325.07 47.825 Q1330.21 43.9361 1340.38 43.9361 L1350.83 43.9361 L1350.83 43.2069 Q1350.83 38.0623 1347.43 35.2672 Q1344.07 32.4315 1337.95 32.4315 Q1334.06 32.4315 1330.37 33.3632 Q1326.69 34.295 1323.28 36.1584 L1323.28 29.2718 Q1327.38 27.692 1331.22 26.9223 Q1335.07 26.1121 1338.72 26.1121 Q1348.56 26.1121 1353.42 31.2163 Q1358.28 36.3204 1358.28 46.6907 Z" fill="#000000" fill-rule="evenodd" fill-opacity="1" /><path clip-path="url(#clip220)" d="M 0 0 M1373.47 14.324 L1373.47 27.2059 L1388.83 27.2059 L1388.83 32.9987 L1373.47 32.9987 L1373.47 57.6282 Q1373.47 63.1779 1374.97 64.7578 Q1376.51 66.3376 1381.17 66.3376 L1388.83 66.3376 L1388.83 72.576 L1381.17 72.576 Q1372.54 72.576 1369.26 69.3758 Q1365.98 66.1351 1365.98 57.6282 L1365.98 32.9987 L1360.51 32.9987 L1360.51 27.2059 L1365.98 27.2059 L1365.98 14.324 L1373.47 14.324 Z" fill="#000000" fill-rule="evenodd" fill-opacity="1" /><path clip-path="url(#clip220)" d="M 0 0 M1396.65 27.2059 L1404.1 27.2059 L1404.1 72.576 L1396.65 72.576 L1396.65 27.2059 M1396.65 9.54393 L1404.1 9.54393 L1404.1 18.9825 L1396.65 18.9825 L1396.65 9.54393 Z" fill="#000000" fill-rule="evenodd" fill-opacity="1" /><path clip-path="url(#clip220)" d="M 0 0 M1429.5 32.4315 Q1423.5 32.4315 1420.02 37.1306 Q1416.54 41.7891 1416.54 49.9314 Q1416.54 58.0738 1419.98 62.7728 Q1423.46 67.4314 1429.5 67.4314 Q1435.45 67.4314 1438.94 62.7323 Q1442.42 58.0333 1442.42 49.9314 Q1442.42 41.8701 1438.94 37.1711 Q1435.45 32.4315 1429.5 32.4315 M1429.5 26.1121 Q1439.22 26.1121 1444.77 32.4315 Q1450.32 38.7509 1450.32 49.9314 Q1450.32 61.0714 1444.77 67.4314 Q1439.22 73.7508 1429.5 73.7508 Q1419.74 73.7508 1414.19 67.4314 Q1408.68 61.0714 1408.68 49.9314 Q1408.68 38.7509 1414.19 32.4315 Q1419.74 26.1121 1429.5 26.1121 Z" fill="#000000" fill-rule="evenodd" fill-opacity="1" /><path clip-path="url(#clip220)" d="M 0 0 M1495.85 45.1919 L1495.85 72.576 L1488.4 72.576 L1488.4 45.4349 Q1488.4 38.994 1485.89 35.7938 Q1483.38 32.5936 1478.35 32.5936 Q1472.32 32.5936 1468.83 36.4419 Q1465.35 40.2903 1465.35 46.9338 L1465.35 72.576 L1457.86 72.576 L1457.86 27.2059 L1465.35 27.2059 L1465.35 34.2544 Q1468.02 30.163 1471.63 28.1376 Q1475.27 26.1121 1480.01 26.1121 Q1487.83 26.1121 1491.84 30.9732 Q1495.85 35.7938 1495.85 45.1919 Z" fill="#000000" fill-rule="evenodd" fill-opacity="1" /><path clip-path="url(#clip220)" d="M 0 0 M1547.62 32.4315 Q1541.63 32.4315 1538.14 37.1306 Q1534.66 41.7891 1534.66 49.9314 Q1534.66 58.0738 1538.1 62.7728 Q1541.59 67.4314 1547.62 67.4314 Q1553.58 67.4314 1557.06 62.7323 Q1560.55 58.0333 1560.55 49.9314 Q1560.55 41.8701 1557.06 37.1711 Q1553.58 32.4315 1547.62 32.4315 M1547.62 26.1121 Q1557.35 26.1121 1562.9 32.4315 Q1568.44 38.7509 1568.44 49.9314 Q1568.44 61.0714 1562.9 67.4314 Q1557.35 73.7508 1547.62 73.7508 Q1537.86 73.7508 1532.31 67.4314 Q1526.8 61.0714 1526.8 49.9314 Q1526.8 38.7509 1532.31 32.4315 Q1537.86 26.1121 1547.62 26.1121 Z" fill="#000000" fill-rule="evenodd" fill-opacity="1" /><path clip-path="url(#clip220)" d="M 0 0 M1613.98 45.1919 L1613.98 72.576 L1606.52 72.576 L1606.52 45.4349 Q1606.52 38.994 1604.01 35.7938 Q1601.5 32.5936 1596.48 32.5936 Q1590.44 32.5936 1586.96 36.4419 Q1583.47 40.2903 1583.47 46.9338 L1583.47 72.576 L1575.98 72.576 L1575.98 27.2059 L1583.47 27.2059 L1583.47 34.2544 Q1586.15 30.163 1589.75 28.1376 Q1593.4 26.1121 1598.14 26.1121 Q1605.96 26.1121 1609.97 30.9732 Q1613.98 35.7938 1613.98 45.1919 Z" fill="#000000" fill-rule="evenodd" fill-opacity="1" /><path clip-path="url(#clip220)" d="M 0 0 M1678.02 49.3643 Q1678.02 41.2625 1674.66 36.8065 Q1671.34 32.3505 1665.3 32.3505 Q1659.31 32.3505 1655.94 36.8065 Q1652.62 41.2625 1652.62 49.3643 Q1652.62 57.4256 1655.94 61.8816 Q1659.31 66.3376 1665.3 66.3376 Q1671.34 66.3376 1674.66 61.8816 Q1678.02 57.4256 1678.02 49.3643 M1685.48 66.9452 Q1685.48 78.5308 1680.33 84.1616 Q1675.19 89.8329 1664.57 89.8329 Q1660.64 89.8329 1657.16 89.2252 Q1653.68 88.6581 1650.39 87.4428 L1650.39 80.1917 Q1653.68 81.9741 1656.88 82.8248 Q1660.08 83.6755 1663.4 83.6755 Q1670.73 83.6755 1674.38 79.8271 Q1678.02 76.0193 1678.02 68.282 L1678.02 64.5957 Q1675.71 68.6061 1672.11 70.5911 Q1668.5 72.576 1663.48 72.576 Q1655.13 72.576 1650.03 66.2161 Q1644.93 59.8562 1644.93 49.3643 Q1644.93 38.832 1650.03 32.472 Q1655.13 26.1121 1663.48 26.1121 Q1668.5 26.1121 1672.11 28.0971 Q1675.71 30.082 1678.02 34.0924 L1678.02 27.2059 L1685.48 27.2059 L1685.48 66.9452 Z" fill="#000000" fill-rule="evenodd" fill-opacity="1" /><path clip-path="url(#clip220)" d="M 0 0 M1693.29 9.54393 L1700.75 9.54393 L1700.75 72.576 L1693.29 72.576 L1693.29 9.54393 Z" fill="#000000" fill-rule="evenodd" fill-opacity="1" /><path clip-path="url(#clip220)" d="M 0 0 M1726.15 32.4315 Q1720.15 32.4315 1716.67 37.1306 Q1713.18 41.7891 1713.18 49.9314 Q1713.18 58.0738 1716.63 62.7728 Q1720.11 67.4314 1726.15 67.4314 Q1732.1 67.4314 1735.59 62.7323 Q1739.07 58.0333 1739.07 49.9314 Q1739.07 41.8701 1735.59 37.1711 Q1732.1 32.4315 1726.15 32.4315 M1726.15 26.1121 Q1735.87 26.1121 1741.42 32.4315 Q1746.97 38.7509 1746.97 49.9314 Q1746.97 61.0714 1741.42 67.4314 Q1735.87 73.7508 1726.15 73.7508 Q1716.38 73.7508 1710.83 67.4314 Q1705.33 61.0714 1705.33 49.9314 Q1705.33 38.7509 1710.83 32.4315 Q1716.38 26.1121 1726.15 26.1121 Z" fill="#000000" fill-rule="evenodd" fill-opacity="1" /><path clip-path="url(#clip220)" d="M 0 0 M1787.36 49.9314 Q1787.36 41.7081 1783.95 37.0496 Q1780.59 32.3505 1774.68 32.3505 Q1768.76 32.3505 1765.36 37.0496 Q1762 41.7081 1762 49.9314 Q1762 58.1548 1765.36 62.8538 Q1768.76 67.5124 1774.68 67.5124 Q1780.59 67.5124 1783.95 62.8538 Q1787.36 58.1548 1787.36 49.9314 M1762 34.0924 Q1764.35 30.0415 1767.91 28.0971 Q1771.52 26.1121 1776.5 26.1121 Q1784.76 26.1121 1789.91 32.6746 Q1795.09 39.2371 1795.09 49.9314 Q1795.09 60.6258 1789.91 67.1883 Q1784.76 73.7508 1776.5 73.7508 Q1771.52 73.7508 1767.91 71.8063 Q1764.35 69.8214 1762 65.7705 L1762 72.576 L1754.5 72.576 L1754.5 9.54393 L1762 9.54393 L1762 34.0924 Z" fill="#000000" fill-rule="evenodd" fill-opacity="1" /><path clip-path="url(#clip220)" d="M 0 0 M1823.53 49.7694 Q1814.5 49.7694 1811.01 51.8354 Q1807.53 53.9013 1807.53 58.8839 Q1807.53 62.8538 1810.12 65.2034 Q1812.76 67.5124 1817.25 67.5124 Q1823.45 67.5124 1827.18 63.1374 Q1830.94 58.7219 1830.94 51.4303 L1830.94 49.7694 L1823.53 49.7694 M1838.4 46.6907 L1838.4 72.576 L1830.94 72.576 L1830.94 65.6895 Q1828.39 69.8214 1824.58 71.8063 Q1820.78 73.7508 1815.27 73.7508 Q1808.3 73.7508 1804.17 69.8619 Q1800.08 65.9325 1800.08 59.3701 Q1800.08 51.7138 1805.18 47.825 Q1810.32 43.9361 1820.49 43.9361 L1830.94 43.9361 L1830.94 43.2069 Q1830.94 38.0623 1827.54 35.2672 Q1824.18 32.4315 1818.06 32.4315 Q1814.17 32.4315 1810.49 33.3632 Q1806.8 34.295 1803.4 36.1584 L1803.4 29.2718 Q1807.49 27.692 1811.34 26.9223 Q1815.19 26.1121 1818.83 26.1121 Q1828.68 26.1121 1833.54 31.2163 Q1838.4 36.3204 1838.4 46.6907 Z" fill="#000000" fill-rule="evenodd" fill-opacity="1" /><path clip-path="url(#clip220)" d="M 0 0 M1846.22 9.54393 L1853.67 9.54393 L1853.67 72.576 L1846.22 72.576 L1846.22 9.54393 Z" fill="#000000" fill-rule="evenodd" fill-opacity="1" /><path clip-path="url(#clip220)" d="M 0 0 M1883.52 27.2059 L1890.98 27.2059 L1900.3 62.6108 L1909.57 27.2059 L1918.36 27.2059 L1927.68 62.6108 L1936.96 27.2059 L1944.41 27.2059 L1932.54 72.576 L1923.75 72.576 L1913.99 35.3887 L1904.18 72.576 L1895.39 72.576 L1883.52 27.2059 Z" fill="#000000" fill-rule="evenodd" fill-opacity="1" /><path clip-path="url(#clip220)" d="M 0 0 M1972.85 49.7694 Q1963.81 49.7694 1960.33 51.8354 Q1956.85 53.9013 1956.85 58.8839 Q1956.85 62.8538 1959.44 65.2034 Q1962.07 67.5124 1966.57 67.5124 Q1972.77 67.5124 1976.49 63.1374 Q1980.26 58.7219 1980.26 51.4303 L1980.26 49.7694 L1972.85 49.7694 M1987.71 46.6907 L1987.71 72.576 L1980.26 72.576 L1980.26 65.6895 Q1977.71 69.8214 1973.9 71.8063 Q1970.09 73.7508 1964.58 73.7508 Q1957.62 73.7508 1953.48 69.8619 Q1949.39 65.9325 1949.39 59.3701 Q1949.39 51.7138 1954.5 47.825 Q1959.64 43.9361 1969.81 43.9361 L1980.26 43.9361 L1980.26 43.2069 Q1980.26 38.0623 1976.86 35.2672 Q1973.49 32.4315 1967.38 32.4315 Q1963.49 32.4315 1959.8 33.3632 Q1956.12 34.295 1952.71 36.1584 L1952.71 29.2718 Q1956.81 27.692 1960.65 26.9223 Q1964.5 26.1121 1968.15 26.1121 Q1977.99 26.1121 1982.85 31.2163 Q1987.71 36.3204 1987.71 46.6907 Z" fill="#000000" fill-rule="evenodd" fill-opacity="1" /><path clip-path="url(#clip220)" d="M 0 0 M2021.82 34.1734 Q2020.57 33.4443 2019.07 33.1202 Q2017.61 32.7556 2015.83 32.7556 Q2009.51 32.7556 2006.1 36.8875 Q2002.74 40.9789 2002.74 48.6757 L2002.74 72.576 L1995.25 72.576 L1995.25 27.2059 L2002.74 27.2059 L2002.74 34.2544 Q2005.09 30.1225 2008.86 28.1376 Q2012.63 26.1121 2018.01 26.1121 Q2018.78 26.1121 2019.72 26.2337 Q2020.65 26.3147 2021.78 26.5172 L2021.82 34.1734 Z" fill="#000000" fill-rule="evenodd" fill-opacity="1" /><path clip-path="url(#clip220)" d="M 0 0 M2063.51 35.9153 Q2066.3 30.8922 2070.19 28.5022 Q2074.08 26.1121 2079.35 26.1121 Q2086.43 26.1121 2090.28 31.0947 Q2094.13 36.0368 2094.13 45.1919 L2094.13 72.576 L2086.64 72.576 L2086.64 45.4349 Q2086.64 38.913 2084.33 35.7533 Q2082.02 32.5936 2077.28 32.5936 Q2071.49 32.5936 2068.12 36.4419 Q2064.76 40.2903 2064.76 46.9338 L2064.76 72.576 L2057.27 72.576 L2057.27 45.4349 Q2057.27 38.8725 2054.96 35.7533 Q2052.65 32.5936 2047.83 32.5936 Q2042.12 32.5936 2038.75 36.4824 Q2035.39 40.3308 2035.39 46.9338 L2035.39 72.576 L2027.9 72.576 L2027.9 27.2059 L2035.39 27.2059 L2035.39 34.2544 Q2037.94 30.082 2041.51 28.0971 Q2045.07 26.1121 2049.98 26.1121 Q2054.92 26.1121 2058.36 28.6237 Q2061.85 31.1352 2063.51 35.9153 Z" fill="#000000" fill-rule="evenodd" fill-opacity="1" /><path clip-path="url(#clip220)" d="M 0 0 M2101.95 27.2059 L2109.4 27.2059 L2109.4 72.576 L2101.95 72.576 L2101.95 27.2059 M2101.95 9.54393 L2109.4 9.54393 L2109.4 18.9825 L2101.95 18.9825 L2101.95 9.54393 Z" fill="#000000" fill-rule="evenodd" fill-opacity="1" /><path clip-path="url(#clip220)" d="M 0 0 M2154.93 45.1919 L2154.93 72.576 L2147.48 72.576 L2147.48 45.4349 Q2147.48 38.994 2144.97 35.7938 Q2142.46 32.5936 2137.43 32.5936 Q2131.4 32.5936 2127.92 36.4419 Q2124.43 40.2903 2124.43 46.9338 L2124.43 72.576 L2116.94 72.576 L2116.94 27.2059 L2124.43 27.2059 L2124.43 34.2544 Q2127.11 30.163 2130.71 28.1376 Q2134.36 26.1121 2139.1 26.1121 Q2146.91 26.1121 2150.92 30.9732 Q2154.93 35.7938 2154.93 45.1919 Z" fill="#000000" fill-rule="evenodd" fill-opacity="1" /><path clip-path="url(#clip220)" d="M 0 0 M2192.61 49.3643 Q2192.61 41.2625 2189.25 36.8065 Q2185.92 32.3505 2179.89 32.3505 Q2173.89 32.3505 2170.53 36.8065 Q2167.21 41.2625 2167.21 49.3643 Q2167.21 57.4256 2170.53 61.8816 Q2173.89 66.3376 2179.89 66.3376 Q2185.92 66.3376 2189.25 61.8816 Q2192.61 57.4256 2192.61 49.3643 M2200.06 66.9452 Q2200.06 78.5308 2194.92 84.1616 Q2189.77 89.8329 2179.16 89.8329 Q2175.23 89.8329 2171.75 89.2252 Q2168.26 88.6581 2164.98 87.4428 L2164.98 80.1917 Q2168.26 81.9741 2171.46 82.8248 Q2174.66 83.6755 2177.98 83.6755 Q2185.32 83.6755 2188.96 79.8271 Q2192.61 76.0193 2192.61 68.282 L2192.61 64.5957 Q2190.3 68.6061 2186.69 70.5911 Q2183.09 72.576 2178.07 72.576 Q2169.72 72.576 2164.62 66.2161 Q2159.51 59.8562 2159.51 49.3643 Q2159.51 38.832 2164.62 32.472 Q2169.72 26.1121 2178.07 26.1121 Q2183.09 26.1121 2186.69 28.0971 Q2190.3 30.082 2192.61 34.0924 L2192.61 27.2059 L2200.06 27.2059 L2200.06 66.9452 Z" fill="#000000" fill-rule="evenodd" fill-opacity="1" /><polyline clip-path="url(#clip222)" style="stroke:#009af9; stroke-width:4; stroke-opacity:1; fill:none" points="
  320.516,1374.46 1417.07,1287.71 1636.38,1027.45 2075,680.431 2276.77,420.17 2293.56,159.909 
  "/>
<circle clip-path="url(#clip222)" cx="320.516" cy="1374.46" r="14" fill="#e26f46" fill-rule="evenodd" fill-opacity="1" stroke="#000000" stroke-opacity="1" stroke-width="3.2"/>
<circle clip-path="url(#clip222)" cx="1417.07" cy="1287.71" r="14" fill="#e26f46" fill-rule="evenodd" fill-opacity="1" stroke="#000000" stroke-opacity="1" stroke-width="3.2"/>
<circle clip-path="url(#clip222)" cx="1636.38" cy="1027.45" r="14" fill="#e26f46" fill-rule="evenodd" fill-opacity="1" stroke="#000000" stroke-opacity="1" stroke-width="3.2"/>
<circle clip-path="url(#clip222)" cx="2075" cy="680.431" r="14" fill="#e26f46" fill-rule="evenodd" fill-opacity="1" stroke="#000000" stroke-opacity="1" stroke-width="3.2"/>
<circle clip-path="url(#clip222)" cx="2276.77" cy="420.17" r="14" fill="#e26f46" fill-rule="evenodd" fill-opacity="1" stroke="#000000" stroke-opacity="1" stroke-width="3.2"/>
<circle clip-path="url(#clip222)" cx="2293.56" cy="159.909" r="14" fill="#e26f46" fill-rule="evenodd" fill-opacity="1" stroke="#000000" stroke-opacity="1" stroke-width="3.2"/>
<path clip-path="url(#clip220)" d="
M1926.47 347.826 L2283.04 347.826 L2283.04 166.386 L1926.47 166.386  Z
  " fill="#ffffff" fill-rule="evenodd" fill-opacity="1"/>
<polyline clip-path="url(#clip220)" style="stroke:#000000; stroke-width:4; stroke-opacity:1; fill:none" points="
  1926.47,347.826 2283.04,347.826 2283.04,166.386 1926.47,166.386 1926.47,347.826 
  "/>
<polyline clip-path="url(#clip220)" style="stroke:#009af9; stroke-width:4; stroke-opacity:1; fill:none" points="
  1949.71,226.866 2089.14,226.866 
  "/>
<path clip-path="url(#clip220)" d="M 0 0 M2112.38 208.128 L2116.64 208.128 L2116.64 244.146 L2112.38 244.146 L2112.38 208.128 Z" fill="#000000" fill-rule="evenodd" fill-opacity="1" /><path clip-path="url(#clip220)" d="M 0 0 M2121.1 218.22 L2125.36 218.22 L2125.36 244.146 L2121.1 244.146 L2121.1 218.22 M2121.1 208.128 L2125.36 208.128 L2125.36 213.521 L2121.1 213.521 L2121.1 208.128 Z" fill="#000000" fill-rule="evenodd" fill-opacity="1" /><path clip-path="url(#clip220)" d="M 0 0 M2151.38 228.498 L2151.38 244.146 L2147.12 244.146 L2147.12 228.637 Q2147.12 224.957 2145.69 223.128 Q2144.25 221.299 2141.38 221.299 Q2137.93 221.299 2135.94 223.498 Q2133.95 225.697 2133.95 229.494 L2133.95 244.146 L2129.67 244.146 L2129.67 218.22 L2133.95 218.22 L2133.95 222.248 Q2135.48 219.91 2137.54 218.753 Q2139.62 217.595 2142.33 217.595 Q2146.8 217.595 2149.09 220.373 Q2151.38 223.128 2151.38 228.498 Z" fill="#000000" fill-rule="evenodd" fill-opacity="1" /><path clip-path="url(#clip220)" d="M 0 0 M2178.02 230.119 L2178.02 232.202 L2158.44 232.202 Q2158.72 236.6 2161.08 238.915 Q2163.46 241.206 2167.7 241.206 Q2170.15 241.206 2172.45 240.605 Q2174.76 240.003 2177.03 238.799 L2177.03 242.827 Q2174.74 243.799 2172.33 244.308 Q2169.92 244.818 2167.45 244.818 Q2161.24 244.818 2157.61 241.206 Q2154 237.595 2154 231.438 Q2154 225.072 2157.42 221.345 Q2160.87 217.595 2166.7 217.595 Q2171.94 217.595 2174.97 220.975 Q2178.02 224.332 2178.02 230.119 M2173.76 228.869 Q2173.72 225.373 2171.8 223.29 Q2169.9 221.207 2166.75 221.207 Q2163.19 221.207 2161.03 223.22 Q2158.9 225.234 2158.58 228.892 L2173.76 228.869 Z" fill="#000000" fill-rule="evenodd" fill-opacity="1" /><circle clip-path="url(#clip220)" cx="2019.42" cy="287.346" r="23" fill="#e26f46" fill-rule="evenodd" fill-opacity="1" stroke="#000000" stroke-opacity="1" stroke-width="5.12"/>
<path clip-path="url(#clip220)" d="M 0 0 M2116.66 300.737 L2116.66 314.487 L2112.38 314.487 L2112.38 278.7 L2116.66 278.7 L2116.66 282.636 Q2118 280.321 2120.04 279.21 Q2122.1 278.075 2124.95 278.075 Q2129.67 278.075 2132.61 281.825 Q2135.57 285.575 2135.57 291.687 Q2135.57 297.798 2132.61 301.548 Q2129.67 305.298 2124.95 305.298 Q2122.1 305.298 2120.04 304.186 Q2118 303.052 2116.66 300.737 M2131.15 291.687 Q2131.15 286.987 2129.2 284.325 Q2127.28 281.64 2123.9 281.64 Q2120.52 281.64 2118.58 284.325 Q2116.66 286.987 2116.66 291.687 Q2116.66 296.386 2118.58 299.071 Q2120.52 301.733 2123.9 301.733 Q2127.28 301.733 2129.2 299.071 Q2131.15 296.386 2131.15 291.687 Z" fill="#000000" fill-rule="evenodd" fill-opacity="1" /><path clip-path="url(#clip220)" d="M 0 0 M2150.08 281.687 Q2146.66 281.687 2144.67 284.372 Q2142.68 287.034 2142.68 291.687 Q2142.68 296.339 2144.64 299.024 Q2146.64 301.686 2150.08 301.686 Q2153.49 301.686 2155.48 299.001 Q2157.47 296.316 2157.47 291.687 Q2157.47 287.08 2155.48 284.395 Q2153.49 281.687 2150.08 281.687 M2150.08 278.075 Q2155.64 278.075 2158.81 281.687 Q2161.98 285.298 2161.98 291.687 Q2161.98 298.052 2158.81 301.686 Q2155.64 305.298 2150.08 305.298 Q2144.51 305.298 2141.33 301.686 Q2138.19 298.052 2138.19 291.687 Q2138.19 285.298 2141.33 281.687 Q2144.51 278.075 2150.08 278.075 Z" fill="#000000" fill-rule="evenodd" fill-opacity="1" /><path clip-path="url(#clip220)" d="M 0 0 M2166.45 278.7 L2170.71 278.7 L2170.71 304.626 L2166.45 304.626 L2166.45 278.7 M2166.45 268.608 L2170.71 268.608 L2170.71 274.001 L2166.45 274.001 L2166.45 268.608 Z" fill="#000000" fill-rule="evenodd" fill-opacity="1" /><path clip-path="url(#clip220)" d="M 0 0 M2196.73 288.978 L2196.73 304.626 L2192.47 304.626 L2192.47 289.117 Q2192.47 285.437 2191.03 283.608 Q2189.6 281.779 2186.73 281.779 Q2183.28 281.779 2181.29 283.978 Q2179.3 286.177 2179.3 289.974 L2179.3 304.626 L2175.01 304.626 L2175.01 278.7 L2179.3 278.7 L2179.3 282.728 Q2180.82 280.39 2182.88 279.233 Q2184.97 278.075 2187.68 278.075 Q2192.14 278.075 2194.44 280.853 Q2196.73 283.608 2196.73 288.978 Z" fill="#000000" fill-rule="evenodd" fill-opacity="1" /><path clip-path="url(#clip220)" d="M 0 0 M2205.41 271.339 L2205.41 278.7 L2214.18 278.7 L2214.18 282.011 L2205.41 282.011 L2205.41 296.085 Q2205.41 299.256 2206.26 300.159 Q2207.14 301.061 2209.81 301.061 L2214.18 301.061 L2214.18 304.626 L2209.81 304.626 Q2204.88 304.626 2203 302.798 Q2201.13 300.946 2201.13 296.085 L2201.13 282.011 L2198 282.011 L2198 278.7 L2201.13 278.7 L2201.13 271.339 L2205.41 271.339 Z" fill="#000000" fill-rule="evenodd" fill-opacity="1" /><path clip-path="url(#clip220)" d="M 0 0 M2235.18 279.464 L2235.18 283.492 Q2233.37 282.566 2231.43 282.103 Q2229.48 281.64 2227.4 281.64 Q2224.23 281.64 2222.63 282.613 Q2221.06 283.585 2221.06 285.529 Q2221.06 287.011 2222.19 287.867 Q2223.32 288.7 2226.75 289.464 L2228.21 289.788 Q2232.75 290.761 2234.64 292.543 Q2236.57 294.302 2236.57 297.474 Q2236.57 301.085 2233.69 303.191 Q2230.85 305.298 2225.85 305.298 Q2223.76 305.298 2221.5 304.881 Q2219.25 304.487 2216.75 303.677 L2216.75 299.279 Q2219.11 300.506 2221.4 301.131 Q2223.69 301.733 2225.94 301.733 Q2228.95 301.733 2230.57 300.714 Q2232.19 299.673 2232.19 297.798 Q2232.19 296.062 2231.01 295.136 Q2229.85 294.21 2225.89 293.353 L2224.41 293.006 Q2220.45 292.173 2218.69 290.46 Q2216.94 288.724 2216.94 285.714 Q2216.94 282.057 2219.53 280.066 Q2222.12 278.075 2226.89 278.075 Q2229.25 278.075 2231.33 278.423 Q2233.42 278.77 2235.18 279.464 Z" fill="#000000" fill-rule="evenodd" fill-opacity="1" /></svg>
